<svg width="1488" height="1024" viewBox="0 0 1488 1024" fill="none" xmlns="http://www.w3.org/2000/svg">
<style type="text/css"><![CDATA[
    #to_left{
        animation: left 15s infinite;
    }

    #to_right {
        animation: right 15s infinite;
    }

    @-webkit-keyframes left{
        0%   {-webkit-transform:  translate(0, 0)}
        33%  {-webkit-transform:  translate(-5px, -5px)}
        66%  {-webkit-transform:  translate(20px, 20px)}
        100% {-webkit-transform:  translate(0, 0)}
    }

    @-webkit-keyframes right{
        0%   {-webkit-transform:  translate(0, 0)}
        33%  {-webkit-transform:  translate(5px, 5px)}
        66%  {-webkit-transform:  translate(-20px, 20px)}
        100% {-webkit-transform:  translate(0, 0)}
    }
    ]]></style>
<g id="leaf_down">
<g class="to_left">
<path id="Vector 1_8" d="M120.027 785C22.2615 792.713 32.6306 869.844 38.5558 909.695C135.729 872.158 136.322 823.565 120.027 785Z" fill="#B6D09C"/>
<path id="Vector 3_7" d="M40.037 905.838C24.4834 814.567 83.7354 785.643 117.805 787.571L40.037 905.838Z" fill="#879973"/>
<path id="Vector 2_8" d="M117.805 788.214C80.773 820.994 52.6282 869.201 40.7778 905.195C121.361 874.857 134.84 826.779 117.805 788.214Z" fill="#6F805E"/>
<path id="Vector 7_7" d="M115.217 806.545C115.217 804.068 114.634 798.867 118.13 787.969C104.293 797.257 69.4842 833.417 40.9377 903.757C40.9377 903.757 42.6855 902.642 46.7635 900.661C47.0063 897.771 49.8221 887.906 59.1434 871.559C61.8135 872.798 67.1538 874.284 67.1538 870.321C65.6974 867.225 65.9887 857.566 78.8054 843.696C79.2909 842.87 80.9901 842.334 83.903 846.792C82.2038 841.425 82.3009 827.968 96.2829 817.071C96.2829 817.071 97.0111 820.786 102.837 820.786C101.623 817.277 101.672 807.783 111.576 797.876C111.576 799.734 109.974 806.545 115.217 806.545Z" fill="#707420"/>
</g>
<g class="one to_right">
<path id="Vector 1_9" d="M147.575 891.151C149.413 989.204 227.026 983.477 267.161 979.952C235.517 880.703 187.048 877.198 147.575 891.151Z" fill="#B6D09C"/>
<path id="Vector 3_8" d="M263.4 978.242C171.36 988.296 146.041 927.416 150.008 893.523L263.4 978.242Z" fill="#879973"/>
<path id="Vector 2_9" d="M150.65 893.562C181.151 932.493 227.584 963.477 262.803 977.464C237.35 895.208 190.167 878.87 150.65 893.562Z" fill="#6F805E"/>
<path id="Vector 7_8" d="M168.792 897.245C166.32 897.096 161.093 897.366 150.425 893.223C158.866 907.592 192.875 944.506 261.376 977.218C261.376 977.218 260.368 975.407 258.635 971.217C255.765 970.802 246.086 967.4 230.328 957.115C231.724 954.524 233.528 949.282 229.572 949.045C226.394 950.313 216.77 949.443 203.693 935.818C202.898 935.284 202.465 933.556 207.089 930.915C201.631 932.29 188.204 931.386 178.164 916.776C178.164 916.776 181.916 916.271 182.266 910.456C178.69 911.457 169.216 910.84 159.921 900.36C161.775 900.471 168.478 902.479 168.792 897.245Z" fill="#707420"/>
</g>
<g class="two to_left">
<path id="Vector 1_10" d="M317.384 863.283C415.429 865.503 412.918 787.718 411.056 747.473C310.583 774.984 305.076 823.267 317.384 863.283Z" fill="#B6D09C"/>
<path id="Vector 3_9" d="M409.192 751.159C415.43 843.536 353.555 866.316 319.855 860.95L409.192 751.159Z" fill="#879973"/>
<path id="Vector 2_10" d="M319.92 860.311C360.08 831.446 392.958 786.334 408.39 751.724C325.151 773.752 306.875 820.219 319.92 860.311Z" fill="#6F805E"/>
<path id="Vector 7_9" d="M324.35 842.336C324.1 844.8 324.153 850.033 319.573 860.521C334.278 852.681 372.568 820.229 408.085 753.139C408.085 753.139 406.234 754.071 401.976 755.629C401.442 758.48 397.642 768.01 386.715 783.329C384.184 781.827 379.021 779.808 378.62 783.75C379.756 786.978 378.489 796.558 364.334 809.06C363.768 809.832 362.023 810.194 359.576 805.464C360.724 810.975 359.265 824.353 344.252 833.78C344.252 833.78 343.904 830.01 338.108 829.42C338.96 833.034 337.951 842.474 327.096 851.328C327.284 849.48 329.567 842.866 324.35 842.336Z" fill="#707420"/>
</g>
<g class="three to_right">
<path id="Vector 1_11" d="M439.218 1003.35C473.824 1095.11 545.026 1063.69 581.655 1046.91C518.567 964.019 471.728 976.968 439.218 1003.35Z" fill="#B6D09C"/>
<path id="Vector 3_10" d="M577.539 1046.56C494.197 1086.89 449.932 1038.03 442.306 1004.77L577.539 1046.56Z" fill="#879973"/>
<path id="Vector 2_11" d="M442.923 1004.59C484.712 1031.04 538.845 1044.66 576.715 1046.03C525.157 977.069 475.227 977.496 442.923 1004.59Z" fill="#6F805E"/>
<path id="Vector 7_10" d="M461.25 1001.97C458.871 1002.66 454.038 1004.67 442.598 1004.34C455.368 1015.05 499.785 1038.43 575.289 1046.28C575.289 1046.28 573.732 1044.91 570.695 1041.54C567.852 1042.11 557.592 1042.15 539.298 1037.75C539.744 1034.84 539.686 1029.3 535.88 1030.4C533.311 1032.66 523.952 1035.07 507.064 1026.61C506.136 1026.38 505.148 1024.89 508.62 1020.86C503.938 1023.98 490.985 1027.63 476.628 1017.23C476.628 1017.23 479.994 1015.5 478.373 1009.9C475.341 1012.05 466.208 1014.64 453.937 1007.88C455.721 1007.37 462.709 1007.01 461.25 1001.97Z" fill="#707420"/>
<path id="Vector 8_3" d="M297 1035L298.5 1023.5C326.5 1023.5 484.5 1038.5 610.5 828H619.5C557.5 934.5 426 1050 297 1035Z" fill="#B6D09C"/>
<path id="Vector 1_12" d="M497.448 965.073C560.544 889.996 498.307 843.271 465.753 819.534C424.325 915.113 458.536 949.627 497.448 965.073Z" fill="#B6D09C"/>
<path id="Vector 3_11" d="M467.462 823.295C543.412 876.247 522.452 938.762 497.175 961.686L467.462 823.295Z" fill="#879973"/>
<path id="Vector 2_12" d="M496.717 961.235C499.34 911.848 484.735 857.971 467.401 824.274C432.483 902.98 457.285 946.317 496.717 961.235Z" fill="#6F805E"/>
<path id="Vector 7_11" d="M485.471 946.53C487.236 948.268 491.351 951.502 496.664 961.638C499.753 945.263 498.408 895.088 468.313 825.397C468.313 825.397 467.881 827.424 466.432 831.721C468.321 833.921 473.375 842.849 478.484 860.96C475.728 861.994 470.922 864.756 473.746 867.537C476.974 868.671 483.653 875.655 484.544 894.519C484.792 895.444 483.982 897.032 478.761 895.98C483.777 898.534 493.298 908.044 491.254 925.653C491.254 925.653 488.096 923.566 484.009 927.717C487.36 929.314 494.092 936.009 494.203 950.017C492.879 948.714 489.15 942.794 485.471 946.53Z" fill="#707420"/>
<path id="Vector 4_5" d="M721.545 764.221C665.395 790.44 626.376 820.192 604 846.557C623.694 740.121 685.19 760.678 721.545 764.221Z" fill="#B6D09C"/>
<path id="Vector 5_5" d="M718.435 766.248C662.363 791.659 628.966 817.532 606.589 843.896C632.211 754.349 686.512 759.059 718.435 766.248Z" fill="#879973"/>
<path id="Vector 6_5" d="M621.116 819.745C621.322 817.633 618.198 819.926 604.055 845.992L661.69 800.442L687.434 782.147L716.657 766.22C715.353 765.705 706.533 767.134 687.896 777.412C686.69 777.876 684.288 777.526 686.621 772.636C685.392 771.354 681.575 772.028 673.836 784.763L651.52 799.45C650.773 799.184 649.85 797.543 652.138 793.115C651.905 791.541 651.107 789.409 647.484 793.243C646.362 804.762 634.579 812.568 621.873 823.889C621.873 823.889 620.757 823.431 621.116 819.745Z" fill="#707420"/>
</g>
<g class="to_left">
<path id="Vector 1_13" d="M340.73 494.355C421.812 439.188 374.569 377.344 349.667 345.672C283.885 426.446 307.46 468.94 340.73 494.355Z" fill="#B6D09C"/>
<path id="Vector 3_12" d="M350.292 349.756C409.048 421.31 371.93 475.804 341.385 491.02L350.292 349.756Z" fill="#879973"/>
<path id="Vector 2_13" d="M341.067 490.462C356.977 443.634 357.52 387.816 349.967 350.681C295.025 416.978 307.153 465.415 341.067 490.462Z" fill="#6F805E"/>
<path id="Vector 7_12" d="M334.227 473.259C335.455 475.41 338.54 479.639 340.906 490.836C348.318 475.91 360.622 427.249 350.542 352.01C350.542 352.01 349.576 353.844 347.017 357.587C348.239 360.217 350.684 370.181 350.693 388.998C347.76 389.246 342.386 390.603 344.35 394.045C347.15 396.011 351.686 404.544 347.431 422.944C347.419 423.901 346.209 425.21 341.469 422.782C345.605 426.6 352.192 438.335 345.452 454.731C345.452 454.731 342.978 451.866 337.918 454.754C340.712 457.199 345.377 465.469 341.687 478.983C340.766 477.369 338.781 470.66 334.227 473.259Z" fill="#707420"/>
<path id="Vector 8_4" d="M404.863 625.179L393.332 626.418C386.763 599.2 364.28 442.09 130.095 368.987L127.984 360.238C246.057 395.524 389.182 496.26 404.863 625.179Z" fill="#B6D09C"/>
<path id="Vector 1_14" d="M289.864 446.728C202.08 403.005 171.259 474.466 155.821 511.68C258.452 529.53 283.978 488.178 289.864 446.728Z" fill="#B6D09C"/>
<path id="Vector 3_13" d="M159.077 509.137C192.734 422.884 258.421 428.594 286.636 447.788L159.077 509.137Z" fill="#879973"/>
<path id="Vector 2_14" d="M286.305 448.339C237.68 457.375 188.733 484.211 160.043 508.967C244.744 524.447 281.053 490.171 286.305 448.339Z" fill="#6F805E"/>
<path id="Vector 7_13" d="M274.648 462.721C275.923 460.598 278.102 455.839 286.709 448.296C270.066 449.135 221.607 462.213 160.921 507.816C160.921 507.816 162.993 507.761 167.509 508.162C169.205 505.81 176.698 498.802 193.105 489.587C194.756 492.024 198.569 496.047 200.61 492.65C200.955 489.246 206.178 481.115 224.306 475.823C225.147 475.366 226.88 475.78 227.082 481.102C228.388 475.627 235.4 464.14 252.997 461.997C252.997 461.997 251.709 465.556 256.703 468.556C257.469 464.923 262.399 456.809 275.99 453.415C275.033 455.007 270.153 460.021 274.648 462.721Z" fill="#707420"/>
<path id="Vector 4_6" d="M42.0464 276.002C80.7056 324.435 118.781 355.385 149.659 370.952C41.573 376.776 47.1306 312.174 42.0464 276.002Z" fill="#B6D09C"/>
<path id="Vector 5_6" d="M44.7463 278.55C82.6017 327.096 115.587 353.492 146.465 369.059C53.4067 365.159 45.2465 311.268 44.7463 278.55Z" fill="#879973"/>
<path id="Vector 6_6" d="M119.58 360.603C117.479 360.899 120.441 363.398 149.097 371.031L91.2973 325.69L67.474 304.956L45.1363 280.285C44.9418 281.673 48.3999 289.912 62.7629 305.618C63.4967 306.681 63.7196 309.099 58.4194 307.978C57.4608 309.473 59.012 313.026 73.2073 317.561L92.7195 335.808C92.6357 336.598 91.2575 337.88 86.4157 336.694C84.9411 337.29 83.0556 338.566 87.6317 341.188C99.0932 339.577 109.445 349.2 123.431 358.896C123.431 358.896 123.248 360.088 119.58 360.603Z" fill="#707420"/>
</g>
<g class="one to_right">
<path id="Vector 4_7" d="M90.7221 997.106C33.9474 1021.94 -5.7865 1050.73 -28.8008 1076.54C-6.5104 970.621 54.4638 992.675 90.7221 997.106Z" fill="#B6D09C"/>
<path id="Vector 5_7" d="M87.563 999.057C30.8868 1023.09 -3.13281 1048.14 -26.1471 1073.95C1.65583 985.054 55.8258 991.089 87.563 999.057Z" fill="#879973"/>
<path id="Vector 6_7" d="M-11.0341 1050.16C-10.7767 1048.05 -13.9559 1050.27 -28.7318 1075.98L29.9996 1031.85L56.1831 1014.19L85.7862 998.985C84.4957 998.439 75.6434 999.652 56.7602 1009.47C55.5438 1009.9 53.1507 1009.5 55.6024 1004.67C54.4055 1003.35 50.5729 1003.93 42.5253 1016.48L19.857 1030.61C19.1162 1030.33 18.2336 1028.67 20.6292 1024.29C20.4343 1022.72 19.6889 1020.56 15.974 1024.31C14.57 1035.8 2.59957 1043.31 -10.3792 1054.32C-10.3792 1054.32 -11.4834 1053.83 -11.0341 1050.16Z" fill="#707420"/>
</g>
<g class="two to_left">
<path id="Vector 4_8" d="M678.523 651.868C621.748 676.706 582.014 705.496 559 731.306C581.29 625.383 642.265 647.437 678.523 651.868Z" fill="#B6D09C"/>
<path id="Vector 5_8" d="M675.364 653.819C618.688 677.851 584.668 702.9 561.654 728.709C589.457 639.816 643.627 645.851 675.364 653.819Z" fill="#879973"/>
<path id="Vector 6_8" d="M576.767 704.921C577.024 702.814 573.845 705.03 559.069 730.742L617.8 686.615L643.984 668.955L673.587 653.747C672.297 653.201 663.444 654.414 644.561 664.233C643.345 664.667 640.951 664.258 643.403 659.427C642.206 658.115 638.374 658.696 630.326 671.238L607.658 685.375C606.917 685.09 606.034 683.428 608.43 679.057C608.235 677.478 607.49 675.327 603.775 679.071C602.371 690.559 590.4 698.075 577.422 709.082C577.422 709.082 576.317 708.597 576.767 704.921Z" fill="#707420"/>
</g>
<g class="three to_right">
<path id="Vector 4_9" d="M226.651 606C258.192 659.342 291.589 695.291 320 715.004C212.155 705.727 226.651 642.528 226.651 606Z" fill="#B6D09C"/>
<path id="Vector 5_9" d="M228.97 608.899C259.7 662.242 288.69 692.971 317.101 712.685C225.491 695.87 224.911 641.368 228.97 608.899Z" fill="#879973"/>
<path id="Vector 6_9" d="M291.655 700.569C289.533 700.569 292.118 703.456 319.432 715.004L268.506 662.059L247.801 638.211L229.114 610.672C228.729 612.019 231.006 620.659 243.043 638.211C243.622 639.366 243.506 641.791 238.414 639.944C237.256 641.291 238.298 645.025 251.724 651.491L268.506 672.277C268.314 673.047 266.77 674.125 262.141 672.277C260.597 672.662 258.553 673.663 262.719 676.897C274.293 676.897 283.205 687.867 295.705 699.415C295.705 699.415 295.358 700.569 291.655 700.569Z" fill="#707420"/>
</g>
<g class="to_left">
<path id="Vector 4_10" d="M-30.7216 632.328C30.0308 620.103 74.969 600.4 102.936 580.062C58.6763 678.843 3.77066 644.352 -30.7216 632.328Z" fill="#B6D09C"/>
<path id="Vector 5_10" d="M-27.2206 631.092C33.2645 619.634 71.8248 602.374 99.7917 582.036C53.7587 663.006 2.10319 645.613 -27.2206 631.092Z" fill="#879973"/>
<path id="Vector 6_10" d="M79.9749 602.076C79.2764 604.08 82.8534 602.59 102.749 580.598L35.9912 611.258L6.65659 622.959L-25.4994 631.539C-24.3543 632.347 -15.4461 633.04 5.09056 627.452C6.37147 627.285 8.62326 628.193 5.20224 632.393C6.09341 633.93 9.96201 634.175 20.4878 623.626L45.6398 614.621C46.3032 615.057 46.813 616.869 43.5443 620.632C43.3998 622.216 43.6718 624.477 48.0965 621.606C51.9064 610.677 65.199 605.873 80.2179 597.871C80.2179 597.871 81.1941 598.579 79.9749 602.076Z" fill="#707420"/>
</g>
</g>
</svg>
