<svg width="1440" height="1024" viewBox="0 0 1440 1024" fill="none" xmlns="http://www.w3.org/2000/svg">
<style type="text/css"><![CDATA[
    .to_left{
        animation: left 10s infinite;
    }

    .to_right {
        animation: right 15s infinite;
    }

    .one {
        animation-delay: 1s;
    }

    .two {
        animation-delay: 3s;
    }

    .three {
        animation-delay: 5s;
    }

    @-webkit-keyframes left{
        0%   {-webkit-transform:  translate(0, 0)}
        33%  {-webkit-transform:  translate(-2px, -2px)}
        66%  {-webkit-transform:  translate(4px, 4px)}
        100% {-webkit-transform:  translate(0, 0)}
    }

    @-webkit-keyframes right{
        0%   {-webkit-transform:  translate(0, 0)}
        25%  {-webkit-transform:  translate(2px, 2px)}
        50%  {-webkit-transform:  translate(-4px, 4px)}
        75%  {-webkit-transform:  translate(2px, 2px)}
        100% {-webkit-transform:  translate(0, 0)}
    }
    ]]></style>

<g id="Leaf_main">
<g id="leaf_up">
<g class="to_left">
<path id="Vector 1" d="M964.027 177C866.261 169.287 876.631 92.1562 882.556 52.3053C979.729 89.8422 980.322 138.435 964.027 177Z" fill="#B6D09C"/>
<path id="Vector 3" d="M884.037 56.1618C868.483 147.433 927.735 176.357 961.805 174.429L884.037 56.1618Z" fill="#879973"/>
<path id="Vector 2" d="M961.805 173.786C924.773 141.006 896.628 92.799 884.778 56.8047C965.361 87.1428 978.84 135.221 961.805 173.786Z" fill="#6F805E"/>
<path id="Vector 7" d="M959.217 155.455C959.217 157.932 958.634 163.133 962.13 174.031C948.293 164.743 913.484 128.583 884.938 58.2431C884.938 58.2431 886.685 59.3577 890.764 61.3391C891.006 64.2286 893.822 74.0943 903.143 90.4408C905.814 89.2025 911.154 87.7164 911.154 91.6792C909.697 94.7751 909.989 104.434 922.805 118.304C923.291 119.13 924.99 119.666 927.903 115.208C926.204 120.575 926.301 134.032 940.283 144.929C940.283 144.929 941.011 141.214 946.837 141.214C945.623 144.723 945.672 154.217 955.576 164.124C955.576 162.266 953.974 155.455 959.217 155.455Z" fill="#707420"/>
</g>
<g class="one to_right">
<path id="Vector 1_2" d="M991.575 70.8488C993.413 -27.2037 1071.03 -21.4775 1111.16 -17.9522C1079.52 81.2968 1031.05 84.8016 991.575 70.8488Z" fill="#B6D09C"/>
<path id="Vector 3_2" d="M1107.4 -16.2424C1015.36 -26.296 990.041 34.5836 994.008 68.4766L1107.4 -16.2424Z" fill="#879973"/>
<path id="Vector 2_2" d="M994.65 68.4381C1025.15 29.5069 1071.58 -1.47738 1106.8 -15.4645C1081.35 66.7922 1034.17 83.1303 994.65 68.4381Z" fill="#6F805E"/>
<path id="Vector 7_2" d="M1012.79 64.7552C1010.32 64.9037 1005.09 64.634 994.425 68.7765C1002.87 54.4083 1036.87 17.4937 1105.38 -15.2185C1105.38 -15.2185 1104.37 -13.407 1102.64 -9.21753C1099.77 -8.80199 1090.09 -5.39977 1074.33 4.88478C1075.72 7.47589 1077.53 12.7175 1073.57 12.9551C1070.39 11.6869 1060.77 12.5568 1047.69 26.182C1046.9 26.7161 1046.46 28.4444 1051.09 31.0848C1045.63 29.7104 1032.2 30.6141 1022.16 45.2243C1022.16 45.2243 1025.92 45.7285 1026.27 51.5438C1022.69 50.5426 1013.22 51.1603 1003.92 61.6403C1005.78 61.5289 1012.48 59.5214 1012.79 64.7552Z" fill="#707420"/>
</g>
<g class="two to_left">
<path id="Vector 1_3" d="M1161.38 98.7169C1259.43 96.4973 1256.92 174.281 1255.06 214.527C1154.58 187.016 1149.08 138.733 1161.38 98.7169Z" fill="#B6D09C"/>
<path id="Vector 3_3" d="M1253.19 210.841C1259.43 118.464 1197.56 95.684 1163.86 101.05L1253.19 210.841Z" fill="#879973"/>
<path id="Vector 2_3" d="M1163.92 101.689C1204.08 130.554 1236.96 175.665 1252.39 210.276C1169.15 188.248 1150.88 141.78 1163.92 101.689Z" fill="#6F805E"/>
<path id="Vector 7_3" d="M1168.35 119.664C1168.1 117.2 1168.15 111.967 1163.57 101.479C1178.28 109.319 1216.57 141.771 1252.09 208.861C1252.09 208.861 1250.23 207.929 1245.98 206.37C1245.44 203.52 1241.64 193.99 1230.71 178.671C1228.18 180.173 1223.02 182.192 1222.62 178.249C1223.76 175.022 1222.49 165.442 1208.33 152.94C1207.77 152.168 1206.02 151.806 1203.58 156.536C1204.72 151.025 1203.27 137.647 1188.25 128.22C1188.25 128.22 1187.9 131.99 1182.11 132.58C1182.96 128.966 1181.95 119.525 1171.1 110.672C1171.28 112.52 1173.57 119.134 1168.35 119.664Z" fill="#707420"/>
</g>
<g class="three to_right">
<path id="Vector 1_4" d="M1283.22 -41.3473C1317.82 -133.108 1389.03 -101.691 1425.66 -84.9134C1362.57 -2.0186 1315.73 -14.9676 1283.22 -41.3473Z" fill="#B6D09C"/>
<path id="Vector 2_4" d="M1286.92 -42.5875C1328.71 -69.0388 1382.85 -82.6617 1420.72 -84.0309C1369.16 -15.069 1319.23 -15.4964 1286.92 -42.5875Z" fill="#6F805E"/>
<path id="Vector 8" d="M1141 -73.0001L1142.5 -61.5001C1170.5 -61.5001 1328.5 -76.5001 1454.5 134H1463.5C1401.5 27.4999 1270 -88.0001 1141 -73.0001Z" fill="#B6D09C"/>
<path id="Vector 1_5" d="M1341.45 -3.0735C1404.54 72.004 1342.31 118.729 1309.75 142.466C1268.33 46.8868 1302.54 12.3726 1341.45 -3.0735Z" fill="#B6D09C"/>
<path id="Vector 3_4" d="M1311.46 138.705C1387.41 85.753 1366.45 23.2384 1341.18 0.313675L1311.46 138.705Z" fill="#879973"/>
<path id="Vector 2_5" d="M1340.72 0.764532C1343.34 50.1517 1328.74 104.028 1311.4 137.726C1276.48 59.0195 1301.28 15.6829 1340.72 0.764532Z" fill="#6F805E"/>
<path id="Vector 7_4" d="M1329.47 15.4698C1331.24 13.7322 1335.35 10.4982 1340.66 0.361661C1343.75 16.7374 1342.41 66.9116 1312.31 136.603C1312.31 136.603 1311.88 134.575 1310.43 130.279C1312.32 128.079 1317.38 119.151 1322.48 101.04C1319.73 100.006 1314.92 97.2436 1317.75 94.4633C1320.97 93.329 1327.65 86.3446 1328.54 67.4807C1328.79 66.5556 1327.98 64.9682 1322.76 66.0204C1327.78 63.4662 1337.3 53.9557 1335.25 36.3468C1335.25 36.3468 1332.1 38.4343 1328.01 34.283C1331.36 32.6862 1338.09 25.9905 1338.2 11.9826C1336.88 13.2858 1333.15 19.206 1329.47 15.4698Z" fill="#707420"/>
</g>
<g class="to_left">
<path id="Vector 1_6" d="M1184.73 467.645C1265.81 522.812 1218.57 584.656 1193.67 616.328C1127.88 535.554 1151.46 493.06 1184.73 467.645Z" fill="#B6D09C"/>
<path id="Vector 3_5" d="M1194.29 612.244C1253.05 540.69 1215.93 486.195 1185.39 470.98L1194.29 612.244Z" fill="#879973"/>
<path id="Vector 2_6" d="M1185.07 471.538C1200.98 518.365 1201.52 574.184 1193.97 611.319C1139.02 545.022 1151.15 496.585 1185.07 471.538Z" fill="#6F805E"/>
<path id="Vector 7_5" d="M1178.23 488.74C1179.46 486.59 1182.54 482.361 1184.91 471.164C1192.32 486.09 1204.62 534.751 1194.54 609.99C1194.54 609.99 1193.58 608.156 1191.02 604.413C1192.24 601.783 1194.68 591.819 1194.69 573.002C1191.76 572.754 1186.39 571.397 1188.35 567.955C1191.15 565.989 1195.69 557.455 1191.43 539.056C1191.42 538.098 1190.21 536.79 1185.47 539.218C1189.61 535.4 1196.19 523.665 1189.45 507.269C1189.45 507.269 1186.98 510.134 1181.92 507.246C1184.71 504.8 1189.38 496.531 1185.69 483.017C1184.77 484.63 1182.78 491.34 1178.23 488.74Z" fill="#707420"/>
<path id="Vector 8_2" d="M1248.86 336.821L1237.33 335.582C1230.76 362.8 1208.28 519.91 974.095 593.013L971.984 601.762C1090.06 566.476 1233.18 465.74 1248.86 336.821Z" fill="#B6D09C"/>
<path id="Vector 1_7" d="M1133.86 515.272C1046.08 558.995 1015.26 487.533 999.821 450.319C1102.45 432.469 1127.98 473.822 1133.86 515.272Z" fill="#B6D09C"/>
<path id="Vector 3_6" d="M1003.08 452.863C1036.73 539.116 1102.42 533.406 1130.64 514.212L1003.08 452.863Z" fill="#879973"/>
<path id="Vector 2_7" d="M1130.3 513.661C1081.68 504.625 1032.73 477.789 1004.04 453.033C1088.74 437.553 1125.05 471.829 1130.3 513.661Z" fill="#6F805E"/>
<path id="Vector 7_6" d="M1118.65 499.279C1119.92 501.402 1122.1 506.161 1130.71 513.704C1114.07 512.865 1065.61 499.787 1004.92 454.183C1004.92 454.183 1006.99 454.239 1011.51 453.838C1013.2 456.19 1020.7 463.198 1037.1 472.413C1038.76 469.976 1042.57 465.953 1044.61 469.35C1044.96 472.754 1050.18 480.885 1068.31 486.176C1069.15 486.634 1070.88 486.219 1071.08 480.898C1072.39 486.373 1079.4 497.859 1097 500.003C1097 500.003 1095.71 496.443 1100.7 493.444C1101.47 497.077 1106.4 505.191 1119.99 508.585C1119.03 506.993 1114.15 501.978 1118.65 499.279Z" fill="#707420"/>
<path id="Vector 4" d="M886.046 685.998C924.706 637.565 962.781 606.615 993.659 591.048C885.573 585.224 891.131 649.825 886.046 685.998Z" fill="#B6D09C"/>
<path id="Vector 5" d="M888.746 683.45C926.602 634.904 959.587 608.508 990.465 592.941C897.407 596.841 889.247 650.732 888.746 683.45Z" fill="#879973"/>
<path id="Vector 6" d="M963.58 601.397C961.479 601.101 964.441 598.602 993.097 590.969L935.297 636.31L911.474 657.044L889.136 681.715C888.942 680.327 892.4 672.088 906.763 656.382C907.497 655.319 907.72 652.901 902.419 654.022C901.461 652.527 903.012 648.974 917.207 644.439L936.72 626.191C936.636 625.402 935.257 624.12 930.416 625.305C928.941 624.709 927.056 623.434 931.632 620.812C943.093 622.423 953.445 612.799 967.431 603.104C967.431 603.104 967.248 601.912 963.58 601.397Z" fill="#707420"/>
</g>
<g class="one to_right">
<path id="Vector 4_2" d="M1522.52 310.132C1465.75 285.293 1426.01 256.504 1403 230.694C1425.29 336.617 1486.26 314.562 1522.52 310.132Z" fill="#B6D09C"/>
<path id="Vector 5_2" d="M1519.36 308.181C1462.69 284.149 1428.67 259.1 1405.65 233.29C1433.46 322.184 1487.63 316.148 1519.36 308.181Z" fill="#879973"/>
<path id="Vector 6_2" d="M1420.77 257.079C1421.02 259.186 1417.84 256.97 1403.07 231.258L1461.8 275.385L1487.98 293.045L1517.59 308.253C1516.3 308.799 1507.44 307.586 1488.56 297.767C1487.34 297.333 1484.95 297.742 1487.4 302.573C1486.21 303.885 1482.37 303.304 1474.33 290.762L1451.66 276.625C1450.92 276.909 1450.03 278.572 1452.43 282.943C1452.24 284.522 1451.49 286.673 1447.77 282.929C1446.37 271.441 1434.4 263.925 1421.42 252.918C1421.42 252.918 1420.32 253.403 1420.77 257.079Z" fill="#707420"/>
</g>
<g class="two to_left">
<path id="Vector 4_3" d="M1070.65 356C1102.19 302.657 1135.59 266.709 1164 246.996C1056.16 256.273 1070.65 319.472 1070.65 356Z" fill="#B6D09C"/>
<path id="Vector 5_3" d="M1072.97 353.101C1103.7 299.758 1132.69 269.028 1161.1 249.315C1069.49 266.129 1068.91 320.631 1072.97 353.101Z" fill="#879973"/>
<path id="Vector 6_3" d="M1135.65 261.43C1133.53 261.43 1136.12 258.543 1163.43 246.996L1112.51 299.941L1091.8 323.788L1073.11 351.328C1072.73 349.981 1075.01 341.341 1087.04 323.788C1087.62 322.634 1087.51 320.209 1082.41 322.056C1081.26 320.709 1082.3 316.975 1095.72 310.509L1112.51 289.722C1112.31 288.953 1110.77 287.875 1106.14 289.722C1104.6 289.338 1102.55 288.337 1106.72 285.103C1118.29 285.103 1127.21 274.133 1139.71 262.585C1139.71 262.585 1139.36 261.43 1135.65 261.43Z" fill="#707420"/>
</g>
<g class="three to_right">
<path id="Vector 4_4" d="M813.278 329.672C874.031 341.897 918.969 361.6 946.936 381.938C902.676 283.157 847.771 317.648 813.278 329.672Z" fill="#B6D09C"/>
<path id="Vector 5_4" d="M816.779 330.908C877.265 342.366 915.825 359.626 943.792 379.964C897.759 298.994 846.103 316.387 816.779 330.908Z" fill="#879973"/>
<path id="Vector 6_4" d="M923.975 359.924C923.276 357.92 926.853 359.41 946.749 381.402L879.991 350.742L850.657 339.041L818.501 330.461C819.646 329.653 828.554 328.96 849.091 334.548C850.371 334.715 852.623 333.807 849.202 329.606C850.093 328.07 853.962 327.825 864.488 338.374L889.64 347.378C890.303 346.943 890.813 345.131 887.544 341.368C887.4 339.784 887.672 337.523 892.097 340.393C895.906 351.323 909.199 356.127 924.218 364.129C924.218 364.129 925.194 363.421 923.975 359.924Z" fill="#707420"/>
</g>
</g>
<g id="leaf_down">
<g class="to_left">
<path id="Vector 1_8" d="M120.027 785C22.2615 792.713 32.6306 869.844 38.5558 909.695C135.729 872.158 136.322 823.565 120.027 785Z" fill="#B6D09C"/>
<path id="Vector 3_7" d="M40.037 905.838C24.4834 814.567 83.7354 785.643 117.805 787.571L40.037 905.838Z" fill="#879973"/>
<path id="Vector 2_8" d="M117.805 788.214C80.773 820.994 52.6282 869.201 40.7778 905.195C121.361 874.857 134.84 826.779 117.805 788.214Z" fill="#6F805E"/>
<path id="Vector 7_7" d="M115.217 806.545C115.217 804.068 114.634 798.867 118.13 787.969C104.293 797.257 69.4842 833.417 40.9377 903.757C40.9377 903.757 42.6855 902.642 46.7635 900.661C47.0063 897.771 49.8221 887.906 59.1434 871.559C61.8135 872.798 67.1538 874.284 67.1538 870.321C65.6974 867.225 65.9887 857.566 78.8054 843.696C79.2909 842.87 80.9901 842.334 83.903 846.792C82.2038 841.425 82.3009 827.968 96.2829 817.071C96.2829 817.071 97.0111 820.786 102.837 820.786C101.623 817.277 101.672 807.783 111.576 797.876C111.576 799.734 109.974 806.545 115.217 806.545Z" fill="#707420"/>
</g>
<g class="one to_right">
<path id="Vector 1_9" d="M147.575 891.151C149.413 989.204 227.026 983.477 267.161 979.952C235.517 880.703 187.048 877.198 147.575 891.151Z" fill="#B6D09C"/>
<path id="Vector 3_8" d="M263.4 978.242C171.36 988.296 146.041 927.416 150.008 893.523L263.4 978.242Z" fill="#879973"/>
<path id="Vector 2_9" d="M150.65 893.562C181.151 932.493 227.584 963.477 262.803 977.464C237.35 895.208 190.167 878.87 150.65 893.562Z" fill="#6F805E"/>
<path id="Vector 7_8" d="M168.792 897.245C166.32 897.096 161.093 897.366 150.425 893.223C158.866 907.592 192.875 944.506 261.376 977.218C261.376 977.218 260.368 975.407 258.635 971.217C255.765 970.802 246.086 967.4 230.328 957.115C231.724 954.524 233.528 949.282 229.572 949.045C226.394 950.313 216.77 949.443 203.693 935.818C202.898 935.284 202.465 933.556 207.089 930.915C201.631 932.29 188.204 931.386 178.164 916.776C178.164 916.776 181.916 916.271 182.266 910.456C178.69 911.457 169.216 910.84 159.921 900.36C161.775 900.471 168.478 902.479 168.792 897.245Z" fill="#707420"/>
</g>
<g class="two to_left">
<path id="Vector 1_10" d="M317.384 863.283C415.429 865.503 412.918 787.718 411.056 747.473C310.583 774.984 305.076 823.267 317.384 863.283Z" fill="#B6D09C"/>
<path id="Vector 3_9" d="M409.192 751.159C415.43 843.536 353.555 866.316 319.855 860.95L409.192 751.159Z" fill="#879973"/>
<path id="Vector 2_10" d="M319.92 860.311C360.08 831.446 392.958 786.334 408.39 751.724C325.151 773.752 306.875 820.219 319.92 860.311Z" fill="#6F805E"/>
<path id="Vector 7_9" d="M324.35 842.336C324.1 844.8 324.153 850.033 319.573 860.521C334.278 852.681 372.568 820.229 408.085 753.139C408.085 753.139 406.234 754.071 401.976 755.629C401.442 758.48 397.642 768.01 386.715 783.329C384.184 781.827 379.021 779.808 378.62 783.75C379.756 786.978 378.489 796.558 364.334 809.06C363.768 809.832 362.023 810.194 359.576 805.464C360.724 810.975 359.265 824.353 344.252 833.78C344.252 833.78 343.904 830.01 338.108 829.42C338.96 833.034 337.951 842.474 327.096 851.328C327.284 849.48 329.567 842.866 324.35 842.336Z" fill="#707420"/>
</g>
<g class="three to_right">
<path id="Vector 1_11" d="M439.218 1003.35C473.824 1095.11 545.026 1063.69 581.655 1046.91C518.567 964.019 471.728 976.968 439.218 1003.35Z" fill="#B6D09C"/>
<path id="Vector 3_10" d="M577.539 1046.56C494.197 1086.89 449.932 1038.03 442.306 1004.77L577.539 1046.56Z" fill="#879973"/>
<path id="Vector 2_11" d="M442.923 1004.59C484.712 1031.04 538.845 1044.66 576.715 1046.03C525.157 977.069 475.227 977.496 442.923 1004.59Z" fill="#6F805E"/>
<path id="Vector 7_10" d="M461.25 1001.97C458.871 1002.66 454.038 1004.67 442.598 1004.34C455.368 1015.05 499.785 1038.43 575.289 1046.28C575.289 1046.28 573.732 1044.91 570.695 1041.54C567.852 1042.11 557.592 1042.15 539.298 1037.75C539.744 1034.84 539.686 1029.3 535.88 1030.4C533.311 1032.66 523.952 1035.07 507.064 1026.61C506.136 1026.38 505.148 1024.89 508.62 1020.86C503.938 1023.98 490.985 1027.63 476.628 1017.23C476.628 1017.23 479.994 1015.5 478.373 1009.9C475.341 1012.05 466.208 1014.64 453.937 1007.88C455.721 1007.37 462.709 1007.01 461.25 1001.97Z" fill="#707420"/>
<path id="Vector 8_3" d="M297 1035L298.5 1023.5C326.5 1023.5 484.5 1038.5 610.5 828H619.5C557.5 934.5 426 1050 297 1035Z" fill="#B6D09C"/>
<path id="Vector 1_12" d="M497.448 965.073C560.544 889.996 498.307 843.271 465.753 819.534C424.325 915.113 458.536 949.627 497.448 965.073Z" fill="#B6D09C"/>
<path id="Vector 3_11" d="M467.462 823.295C543.412 876.247 522.452 938.762 497.175 961.686L467.462 823.295Z" fill="#879973"/>
<path id="Vector 2_12" d="M496.717 961.235C499.34 911.848 484.735 857.971 467.401 824.274C432.483 902.98 457.285 946.317 496.717 961.235Z" fill="#6F805E"/>
<path id="Vector 7_11" d="M485.471 946.53C487.236 948.268 491.351 951.502 496.664 961.638C499.753 945.263 498.408 895.088 468.313 825.397C468.313 825.397 467.881 827.424 466.432 831.721C468.321 833.921 473.375 842.849 478.484 860.96C475.728 861.994 470.922 864.756 473.746 867.537C476.974 868.671 483.653 875.655 484.544 894.519C484.792 895.444 483.982 897.032 478.761 895.98C483.777 898.534 493.298 908.044 491.254 925.653C491.254 925.653 488.096 923.566 484.009 927.717C487.36 929.314 494.092 936.009 494.203 950.017C492.879 948.714 489.15 942.794 485.471 946.53Z" fill="#707420"/>
<path id="Vector 4_5" d="M721.545 764.221C665.395 790.44 626.376 820.192 604 846.557C623.694 740.121 685.19 760.678 721.545 764.221Z" fill="#B6D09C"/>
<path id="Vector 5_5" d="M718.435 766.248C662.363 791.659 628.966 817.532 606.589 843.896C632.211 754.349 686.512 759.059 718.435 766.248Z" fill="#879973"/>
<path id="Vector 6_5" d="M621.116 819.745C621.322 817.633 618.198 819.926 604.055 845.992L661.69 800.442L687.434 782.147L716.657 766.22C715.353 765.705 706.533 767.134 687.896 777.412C686.69 777.876 684.288 777.526 686.621 772.636C685.392 771.354 681.575 772.028 673.836 784.763L651.52 799.45C650.773 799.184 649.85 797.543 652.138 793.115C651.905 791.541 651.107 789.409 647.484 793.243C646.362 804.762 634.579 812.568 621.873 823.889C621.873 823.889 620.757 823.431 621.116 819.745Z" fill="#707420"/>
</g>
<g class="to_left">
<path id="Vector 1_13" d="M340.73 494.355C421.812 439.188 374.569 377.344 349.667 345.672C283.885 426.446 307.46 468.94 340.73 494.355Z" fill="#B6D09C"/>
<path id="Vector 3_12" d="M350.292 349.756C409.048 421.31 371.93 475.804 341.385 491.02L350.292 349.756Z" fill="#879973"/>
<path id="Vector 2_13" d="M341.067 490.462C356.977 443.634 357.52 387.816 349.967 350.681C295.025 416.978 307.153 465.415 341.067 490.462Z" fill="#6F805E"/>
<path id="Vector 7_12" d="M334.227 473.259C335.455 475.41 338.54 479.639 340.906 490.836C348.318 475.91 360.622 427.249 350.542 352.01C350.542 352.01 349.576 353.844 347.017 357.587C348.239 360.217 350.684 370.181 350.693 388.998C347.76 389.246 342.386 390.603 344.35 394.045C347.15 396.011 351.686 404.544 347.431 422.944C347.419 423.901 346.209 425.21 341.469 422.782C345.605 426.6 352.192 438.335 345.452 454.731C345.452 454.731 342.978 451.866 337.918 454.754C340.712 457.199 345.377 465.469 341.687 478.983C340.766 477.369 338.781 470.66 334.227 473.259Z" fill="#707420"/>
<path id="Vector 8_4" d="M404.863 625.179L393.332 626.418C386.763 599.2 364.28 442.09 130.095 368.987L127.984 360.238C246.057 395.524 389.182 496.26 404.863 625.179Z" fill="#B6D09C"/>
<path id="Vector 1_14" d="M289.864 446.728C202.08 403.005 171.259 474.466 155.821 511.68C258.452 529.53 283.978 488.178 289.864 446.728Z" fill="#B6D09C"/>
<path id="Vector 3_13" d="M159.077 509.137C192.734 422.884 258.421 428.594 286.636 447.788L159.077 509.137Z" fill="#879973"/>
<path id="Vector 2_14" d="M286.305 448.339C237.68 457.375 188.733 484.211 160.043 508.967C244.744 524.447 281.053 490.171 286.305 448.339Z" fill="#6F805E"/>
<path id="Vector 7_13" d="M274.648 462.721C275.923 460.598 278.102 455.839 286.709 448.296C270.066 449.135 221.607 462.213 160.921 507.816C160.921 507.816 162.993 507.761 167.509 508.162C169.205 505.81 176.698 498.802 193.105 489.587C194.756 492.024 198.569 496.047 200.61 492.65C200.955 489.246 206.178 481.115 224.306 475.823C225.147 475.366 226.88 475.78 227.082 481.102C228.388 475.627 235.4 464.14 252.997 461.997C252.997 461.997 251.709 465.556 256.703 468.556C257.469 464.923 262.399 456.809 275.99 453.415C275.033 455.007 270.153 460.021 274.648 462.721Z" fill="#707420"/>
<path id="Vector 4_6" d="M42.0464 276.002C80.7056 324.435 118.781 355.385 149.659 370.952C41.573 376.776 47.1306 312.174 42.0464 276.002Z" fill="#B6D09C"/>
<path id="Vector 5_6" d="M44.7463 278.55C82.6017 327.096 115.587 353.492 146.465 369.059C53.4067 365.159 45.2465 311.268 44.7463 278.55Z" fill="#879973"/>
<path id="Vector 6_6" d="M119.58 360.603C117.479 360.899 120.441 363.398 149.097 371.031L91.2973 325.69L67.474 304.956L45.1363 280.285C44.9418 281.673 48.3999 289.912 62.7629 305.618C63.4967 306.681 63.7196 309.099 58.4194 307.978C57.4608 309.473 59.012 313.026 73.2073 317.561L92.7195 335.808C92.6357 336.598 91.2575 337.88 86.4157 336.694C84.9411 337.29 83.0556 338.566 87.6317 341.188C99.0932 339.577 109.445 349.2 123.431 358.896C123.431 358.896 123.248 360.088 119.58 360.603Z" fill="#707420"/>
</g>
<g class="one to_right">
<path id="Vector 4_7" d="M90.7221 997.106C33.9474 1021.94 -5.7865 1050.73 -28.8008 1076.54C-6.5104 970.621 54.4638 992.675 90.7221 997.106Z" fill="#B6D09C"/>
<path id="Vector 5_7" d="M87.563 999.057C30.8868 1023.09 -3.13281 1048.14 -26.1471 1073.95C1.65583 985.054 55.8258 991.089 87.563 999.057Z" fill="#879973"/>
<path id="Vector 6_7" d="M-11.0341 1050.16C-10.7767 1048.05 -13.9559 1050.27 -28.7318 1075.98L29.9996 1031.85L56.1831 1014.19L85.7862 998.985C84.4957 998.439 75.6434 999.652 56.7602 1009.47C55.5438 1009.9 53.1507 1009.5 55.6024 1004.67C54.4055 1003.35 50.5729 1003.93 42.5253 1016.48L19.857 1030.61C19.1162 1030.33 18.2336 1028.67 20.6292 1024.29C20.4343 1022.72 19.6889 1020.56 15.974 1024.31C14.57 1035.8 2.59957 1043.31 -10.3792 1054.32C-10.3792 1054.32 -11.4834 1053.83 -11.0341 1050.16Z" fill="#707420"/>
</g>
<g class="two to_left">
<path id="Vector 4_8" d="M678.523 651.868C621.748 676.706 582.014 705.496 559 731.306C581.29 625.383 642.265 647.437 678.523 651.868Z" fill="#B6D09C"/>
<path id="Vector 5_8" d="M675.364 653.819C618.688 677.851 584.668 702.9 561.654 728.709C589.457 639.816 643.627 645.851 675.364 653.819Z" fill="#879973"/>
<path id="Vector 6_8" d="M576.767 704.921C577.024 702.814 573.845 705.03 559.069 730.742L617.8 686.615L643.984 668.955L673.587 653.747C672.297 653.201 663.444 654.414 644.561 664.233C643.345 664.667 640.951 664.258 643.403 659.427C642.206 658.115 638.374 658.696 630.326 671.238L607.658 685.375C606.917 685.09 606.034 683.428 608.43 679.057C608.235 677.478 607.49 675.327 603.775 679.071C602.371 690.559 590.4 698.075 577.422 709.082C577.422 709.082 576.317 708.597 576.767 704.921Z" fill="#707420"/>
</g>
<g class="three to_right">
<path id="Vector 4_9" d="M226.651 606C258.192 659.342 291.589 695.291 320 715.004C212.155 705.727 226.651 642.528 226.651 606Z" fill="#B6D09C"/>
<path id="Vector 5_9" d="M228.97 608.899C259.7 662.242 288.69 692.971 317.101 712.685C225.491 695.87 224.911 641.368 228.97 608.899Z" fill="#879973"/>
<path id="Vector 6_9" d="M291.655 700.569C289.533 700.569 292.118 703.456 319.432 715.004L268.506 662.059L247.801 638.211L229.114 610.672C228.729 612.019 231.006 620.659 243.043 638.211C243.622 639.366 243.506 641.791 238.414 639.944C237.256 641.291 238.298 645.025 251.724 651.491L268.506 672.277C268.314 673.047 266.77 674.125 262.141 672.277C260.597 672.662 258.553 673.663 262.719 676.897C274.293 676.897 283.205 687.867 295.705 699.415C295.705 699.415 295.358 700.569 291.655 700.569Z" fill="#707420"/>
</g>
<g class="to_left">
<path id="Vector 4_10" d="M-30.7216 632.328C30.0308 620.103 74.969 600.4 102.936 580.062C58.6763 678.843 3.77066 644.352 -30.7216 632.328Z" fill="#B6D09C"/>
<path id="Vector 5_10" d="M-27.2206 631.092C33.2645 619.634 71.8248 602.374 99.7917 582.036C53.7587 663.006 2.10319 645.613 -27.2206 631.092Z" fill="#879973"/>
<path id="Vector 6_10" d="M79.9749 602.076C79.2764 604.08 82.8534 602.59 102.749 580.598L35.9912 611.258L6.65659 622.959L-25.4994 631.539C-24.3543 632.347 -15.4461 633.04 5.09056 627.452C6.37147 627.285 8.62326 628.193 5.20224 632.393C6.09341 633.93 9.96201 634.175 20.4878 623.626L45.6398 614.621C46.3032 615.057 46.813 616.869 43.5443 620.632C43.3998 622.216 43.6718 624.477 48.0965 621.606C51.9064 610.677 65.199 605.873 80.2179 597.871C80.2179 597.871 81.1941 598.579 79.9749 602.076Z" fill="#707420"/>
</g>
</g>
</g>
</svg>
