<svg width="1488" height="1024" viewBox="0 0 1488 1024" fill="none" xmlns="http://www.w3.org/2000/svg">
<style type="text/css"><![CDATA[
    #to_left{
        animation: left 15s infinite;
    }

    #to_right {
        animation: right 15s infinite;
    }

    @-webkit-keyframes left{
        0%   {-webkit-transform:  translate(0, 0)}
        33%  {-webkit-transform:  translate(-5px, -5px)}
        66%  {-webkit-transform:  translate(20px, 20px)}
        100% {-webkit-transform:  translate(0, 0)}
    }

    @-webkit-keyframes right{
        0%   {-webkit-transform:  translate(0, 0)}
        33%  {-webkit-transform:  translate(5px, 5px)}
        66%  {-webkit-transform:  translate(-20px, 20px)}
        100% {-webkit-transform:  translate(0, 0)}
    }
    ]]></style>
<g id="leafe_down ">
<g id="Group 3">
<g id=" kbcnbr">
<path id="Vector 1" d="M185.027 598C87.2615 605.713 97.6306 682.844 103.556 722.695C200.729 685.158 201.322 636.565 185.027 598Z" fill="#B6D09C"/>
<path id="Vector 3" d="M105.037 718.838C89.4834 627.567 148.735 598.643 182.805 600.571L105.037 718.838Z" fill="#879973"/>
<path id="Vector 2" d="M182.805 601.214C145.773 633.994 117.628 682.201 105.778 718.195C186.361 687.857 199.84 639.779 182.805 601.214Z" fill="#6F805E"/>
</g>
<path id="Vector 7" d="M180.217 619.545C180.217 617.068 179.634 611.867 183.13 600.969C169.293 610.257 134.484 646.417 105.938 716.757C105.938 716.757 107.685 715.642 111.764 713.661C112.006 710.771 114.822 700.906 124.143 684.559C126.814 685.798 132.154 687.284 132.154 683.321C130.697 680.225 130.989 670.566 143.805 656.696C144.291 655.87 145.99 655.334 148.903 659.792C147.204 654.425 147.301 640.968 161.283 630.071C161.283 630.071 162.011 633.786 167.837 633.786C166.623 630.277 166.672 620.783 176.576 610.876C176.576 612.734 174.974 619.545 180.217 619.545Z" fill="#707420"/>
</g>
<g id="Group 5">
<g id=" kbcnbr_2">
<path id="Vector 1_2" d="M212.575 704.151C214.413 802.204 292.026 796.477 332.161 792.952C300.517 693.703 252.048 690.198 212.575 704.151Z" fill="#B6D09C"/>
<path id="Vector 3_2" d="M328.4 791.242C236.36 801.296 211.041 740.416 215.008 706.523L328.4 791.242Z" fill="#879973"/>
<path id="Vector 2_2" d="M215.65 706.562C246.151 745.493 292.584 776.477 327.803 790.464C302.35 708.208 255.167 691.87 215.65 706.562Z" fill="#6F805E"/>
</g>
<path id="Vector 7_2" d="M233.792 710.245C231.32 710.096 226.093 710.366 215.425 706.223C223.866 720.592 257.875 757.506 326.376 790.218C326.376 790.218 325.368 788.407 323.635 784.217C320.765 783.802 311.086 780.4 295.328 770.115C296.724 767.524 298.528 762.282 294.572 762.045C291.394 763.313 281.77 762.443 268.693 748.818C267.898 748.284 267.465 746.555 272.089 743.915C266.631 745.289 253.204 744.386 243.164 729.776C243.164 729.776 246.916 729.271 247.266 723.456C243.69 724.457 234.216 723.84 224.921 713.36C226.775 713.471 233.478 715.478 233.792 710.245Z" fill="#707420"/>
</g>
<g id="leaf_front">
<g id=" kbcnbr_3">
<path id="Vector 1_3" d="M382.384 676.283C480.429 678.503 477.918 600.719 476.056 560.473C375.583 587.984 370.076 636.267 382.384 676.283Z" fill="#B6D09C"/>
<path id="Vector 3_3" d="M474.192 564.16C480.43 656.536 418.555 679.316 384.855 673.95L474.192 564.16Z" fill="#879973"/>
<path id="Vector 2_3" d="M384.92 673.311C425.08 644.446 457.958 599.335 473.39 564.724C390.151 586.752 371.875 633.219 384.92 673.311Z" fill="#6F805E"/>
</g>
<path id="Vector 7_3" d="M389.35 655.336C389.1 657.8 389.153 663.033 384.573 673.521C399.278 665.681 437.568 633.229 473.085 566.139C473.085 566.139 471.234 567.071 466.976 568.63C466.442 571.48 462.642 581.01 451.715 596.329C449.184 594.827 444.021 592.808 443.62 596.751C444.756 599.978 443.489 609.558 429.334 622.06C428.768 622.832 427.023 623.194 424.576 618.464C425.724 623.975 424.265 637.353 409.252 646.78C409.252 646.78 408.904 643.01 403.108 642.42C403.96 646.034 402.951 655.474 392.096 664.328C392.284 662.48 394.567 655.866 389.35 655.336Z" fill="#707420"/>
</g>
<g id="Group 10">
<g id="Group 7">
<g id=" kbcnbr_4">
<path id="Vector 1_4" d="M504.218 816.347C538.824 908.108 610.026 876.691 646.655 859.913C583.567 777.018 536.728 789.967 504.218 816.347Z" fill="#B6D09C"/>
<path id="Vector 3_4" d="M642.539 859.563C559.197 899.894 514.932 851.028 507.306 817.766L642.539 859.563Z" fill="#879973"/>
<path id="Vector 2_4" d="M507.923 817.587C549.712 844.039 603.845 857.662 641.715 859.031C590.157 790.069 540.227 790.496 507.923 817.587Z" fill="#6F805E"/>
</g>
<path id="Vector 7_4" d="M526.25 814.974C523.871 815.663 519.038 817.67 507.598 817.344C520.368 828.05 564.785 851.426 640.289 859.277C640.289 859.277 638.732 857.909 635.695 854.543C632.852 855.113 622.592 855.153 604.298 850.747C604.744 847.838 604.686 842.295 600.88 843.398C598.311 845.658 588.952 848.065 572.064 839.613C571.136 839.376 570.148 837.894 573.62 833.855C568.938 836.98 555.985 840.631 541.628 830.232C541.628 830.232 544.994 828.499 543.373 822.904C540.341 825.045 531.208 827.64 518.937 820.883C520.721 820.367 527.709 820.011 526.25 814.974Z" fill="#707420"/>
</g>
<path id="Vector 8" d="M362 848L363.5 836.5C391.5 836.5 549.5 851.5 675.5 641H684.5C622.5 747.5 491 863 362 848Z" fill="#B6D09C"/>
<g id="Group 6">
<g id=" kbcnbr_5">
<path id="Vector 1_5" d="M562.448 778.073C625.544 702.996 563.307 656.271 530.753 632.534C489.325 728.113 523.536 762.627 562.448 778.073Z" fill="#B6D09C"/>
<path id="Vector 3_5" d="M532.462 636.295C608.412 689.247 587.452 751.761 562.175 774.686L532.462 636.295Z" fill="#879973"/>
<path id="Vector 2_5" d="M561.717 774.235C564.34 724.848 549.735 670.971 532.4 637.274C497.482 715.98 522.285 759.317 561.717 774.235Z" fill="#6F805E"/>
</g>
<path id="Vector 7_5" d="M550.471 759.53C552.236 761.268 556.351 764.502 561.664 774.638C564.753 758.263 563.408 708.088 533.313 638.397C533.313 638.397 532.881 640.424 531.432 644.721C533.321 646.921 538.375 655.849 543.484 673.96C540.728 674.994 535.922 677.756 538.746 680.537C541.974 681.671 548.653 688.655 549.544 707.519C549.792 708.444 548.982 710.032 543.761 708.98C548.777 711.534 558.298 721.044 556.254 738.653C556.254 738.653 553.096 736.566 549.009 740.717C552.36 742.314 559.092 749.009 559.203 763.017C557.879 761.714 554.15 755.794 550.471 759.53Z" fill="#707420"/>
</g>
<g id="Group 4">
<g id="Group 1">
<path id="Vector 4" d="M786.545 577.221C730.395 603.44 691.376 633.192 669 659.557C688.694 553.121 750.19 573.678 786.545 577.221Z" fill="#B6D09C"/>
<path id="Vector 5" d="M783.435 579.248C727.363 604.659 693.966 630.532 671.589 656.896C697.211 567.349 751.512 572.059 783.435 579.248Z" fill="#879973"/>
</g>
<path id="Vector 6" d="M686.116 632.745C686.322 630.633 683.198 632.926 669.055 658.992L726.69 613.442L752.434 595.147L781.657 579.22C780.353 578.705 771.533 580.134 752.896 590.412C751.69 590.876 749.288 590.526 751.621 585.636C750.392 584.354 746.575 585.028 738.836 597.763L716.52 612.45C715.773 612.184 714.85 610.543 717.138 606.115C716.905 604.541 716.107 602.409 712.484 606.243C711.362 617.762 699.579 625.568 686.873 636.889C686.873 636.889 685.757 636.431 686.116 632.745Z" fill="#707420"/>
</g>
</g>
<g id="Group 11">
<g id="Group 7_2">
<g id=" kbcnbr_6">
<path id="Vector 1_6" d="M405.73 307.355C486.812 252.188 439.569 190.344 414.667 158.672C348.885 239.446 372.46 281.94 405.73 307.355Z" fill="#B6D09C"/>
<path id="Vector 3_6" d="M415.292 162.756C474.048 234.31 436.93 288.805 406.385 304.02L415.292 162.756Z" fill="#879973"/>
<path id="Vector 2_6" d="M406.067 303.462C421.977 256.635 422.52 200.816 414.967 163.681C360.025 229.978 372.153 278.415 406.067 303.462Z" fill="#6F805E"/>
</g>
<path id="Vector 7_6" d="M399.227 286.26C400.455 288.41 403.54 292.639 405.906 303.836C413.318 288.91 425.622 240.249 415.542 165.01C415.542 165.01 414.576 166.844 412.017 170.587C413.239 173.217 415.684 183.181 415.693 201.998C412.76 202.246 407.386 203.603 409.35 207.045C412.15 209.011 416.686 217.545 412.431 235.944C412.419 236.902 411.209 238.21 406.469 235.782C410.605 239.6 417.192 251.335 410.452 267.731C410.452 267.731 407.978 264.866 402.918 267.754C405.712 270.2 410.377 278.469 406.687 291.983C405.766 290.37 403.781 283.66 399.227 286.26Z" fill="#707420"/>
</g>
<path id="Vector 8_2" d="M469.863 438.179L458.332 439.418C451.763 412.2 429.28 255.09 195.095 181.987L192.984 173.238C311.057 208.524 454.182 309.26 469.863 438.179Z" fill="#B6D09C"/>
<g id="Group 6_2">
<g id=" kbcnbr_7">
<path id="Vector 1_7" d="M354.864 259.728C267.08 216.005 236.259 287.467 220.821 324.681C323.452 342.531 348.978 301.178 354.864 259.728Z" fill="#B6D09C"/>
<path id="Vector 3_7" d="M224.077 322.137C257.734 235.884 323.421 241.594 351.636 260.788L224.077 322.137Z" fill="#879973"/>
<path id="Vector 2_7" d="M351.305 261.339C302.68 270.375 253.733 297.211 225.043 321.967C309.744 337.447 346.053 303.171 351.305 261.339Z" fill="#6F805E"/>
</g>
<path id="Vector 7_7" d="M339.648 275.721C340.923 273.598 343.102 268.839 351.709 261.296C335.065 262.135 286.607 275.213 225.92 320.816C225.92 320.816 227.992 320.761 232.509 321.162C234.204 318.81 241.698 311.802 258.105 302.587C259.756 305.024 263.569 309.047 265.609 305.65C265.955 302.246 271.178 294.115 289.306 288.823C290.147 288.366 291.88 288.78 292.082 294.102C293.388 288.627 300.4 277.14 317.997 274.997C317.997 274.997 316.709 278.556 321.703 281.556C322.469 277.923 327.399 269.809 340.99 266.415C340.033 268.007 335.153 273.021 339.648 275.721Z" fill="#707420"/>
</g>
<g id="Group 4_2">
<g id="Group 1_2">
<path id="Vector 4_2" d="M107.046 89.0021C145.706 137.435 183.781 168.385 214.659 183.952C106.573 189.776 112.131 125.175 107.046 89.0021Z" fill="#B6D09C"/>
<path id="Vector 5_2" d="M109.747 91.5502C147.602 140.096 180.587 166.492 211.465 182.059C118.407 178.159 110.247 124.268 109.747 91.5502Z" fill="#879973"/>
</g>
<path id="Vector 6_2" d="M184.58 173.603C182.479 173.899 185.441 176.398 214.097 184.031L156.297 138.69L132.474 117.956L110.136 93.2853C109.942 94.6731 113.4 102.912 127.763 118.618C128.497 119.681 128.72 122.099 123.419 120.978C122.461 122.473 124.012 126.026 138.207 130.561L157.72 148.809C157.636 149.598 156.257 150.88 151.416 149.695C149.941 150.291 148.056 151.566 152.632 154.188C164.093 152.577 174.445 162.2 188.431 171.896C188.431 171.896 188.248 173.088 184.58 173.603Z" fill="#707420"/>
</g>
</g>
<g id="Group 2">
<g id="Group 1_3">
<path id="Vector 4_3" d="M155.722 810.106C98.9472 834.944 59.2133 863.734 36.199 889.544C58.4894 783.621 119.464 805.675 155.722 810.106Z" fill="#B6D09C"/>
<path id="Vector 5_3" d="M152.563 812.057C95.8866 836.089 61.8669 861.138 38.8527 886.947C66.6556 798.054 120.826 804.089 152.563 812.057Z" fill="#879973"/>
</g>
<path id="Vector 6_3" d="M53.9656 863.159C54.223 861.052 51.0439 863.268 36.268 888.98L94.9994 844.853L121.183 827.193L150.786 811.985C149.495 811.439 140.643 812.652 121.76 822.471C120.544 822.905 118.15 822.496 120.602 817.665C119.405 816.353 115.573 816.934 107.525 829.476L84.8568 843.613C84.116 843.328 83.2334 841.666 85.629 837.295C85.4341 835.716 84.6887 833.565 80.9737 837.309C79.5698 848.797 67.5993 856.313 54.6205 867.32C54.6205 867.32 53.5164 866.835 53.9656 863.159Z" fill="#707420"/>
</g>
<g id="Group 14">
<g id="Group 1_4">
<path id="Vector 4_4" d="M743.523 464.868C686.748 489.706 647.014 518.496 624 544.306C646.29 438.383 707.265 460.437 743.523 464.868Z" fill="#B6D09C"/>
<path id="Vector 5_4" d="M740.364 466.819C683.688 490.851 649.668 515.9 626.654 541.709C654.457 452.816 708.627 458.851 740.364 466.819Z" fill="#879973"/>
</g>
<path id="Vector 6_4" d="M641.767 517.921C642.024 515.814 638.845 518.03 624.069 543.742L682.8 499.615L708.984 481.955L738.587 466.747C737.297 466.201 728.444 467.414 709.561 477.233C708.345 477.667 705.951 477.258 708.403 472.427C707.206 471.115 703.374 471.696 695.326 484.238L672.658 498.375C671.917 498.09 671.034 496.428 673.43 492.057C673.235 490.478 672.49 488.327 668.775 492.071C667.371 503.559 655.4 511.075 642.422 522.082C642.422 522.082 641.317 521.597 641.767 517.921Z" fill="#707420"/>
</g>
<g id="Group 9">
<g id="Group 1_5">
<path id="Vector 4_5" d="M291.651 419C323.192 472.342 356.589 508.291 385 528.004C277.155 518.727 291.651 455.528 291.651 419Z" fill="#B6D09C"/>
<path id="Vector 5_5" d="M293.97 421.899C324.7 475.242 353.69 505.971 382.101 525.685C290.491 508.87 289.911 454.368 293.97 421.899Z" fill="#879973"/>
</g>
<path id="Vector 6_5" d="M356.655 513.569C354.533 513.569 357.118 516.456 384.432 528.004L333.506 475.059L312.801 451.211L294.114 423.672C293.729 425.019 296.006 433.659 308.043 451.211C308.622 452.366 308.506 454.791 303.414 452.944C302.256 454.291 303.298 458.025 316.724 464.491L333.506 485.277C333.314 486.047 331.77 487.125 327.141 485.277C325.597 485.662 323.553 486.663 327.719 489.897C339.293 489.897 348.205 500.867 360.705 512.415C360.705 512.415 360.358 513.569 356.655 513.569Z" fill="#707420"/>
</g>
<g id="Group 8">
<g id="Group 1_6">
<path id="Vector 4_6" d="M268.651 864C300.192 917.342 333.589 953.291 362 973.004C254.155 963.727 268.651 900.528 268.651 864Z" fill="#B6D09C"/>
<path id="Vector 5_6" d="M270.97 866.899C301.7 920.242 330.69 950.972 359.101 970.685C267.491 953.871 266.911 899.369 270.97 866.899Z" fill="#879973"/>
</g>
<path id="Vector 6_6" d="M333.655 958.569C331.533 958.569 334.118 961.456 361.432 973.004L310.506 920.059L289.801 896.211L271.114 868.672C270.729 870.019 273.006 878.659 285.043 896.211C285.622 897.366 285.506 899.791 280.414 897.944C279.256 899.291 280.298 903.025 293.724 909.491L310.506 930.277C310.314 931.047 308.77 932.125 304.141 930.277C302.597 930.662 300.553 931.663 304.719 934.897C316.293 934.897 325.205 945.867 337.705 957.415C337.705 957.415 337.358 958.569 333.655 958.569Z" fill="#707420"/>
</g>
<g id="Group 12">
<g id="Group 1_7">
<path id="Vector 4_7" d="M34.2784 445.328C95.0308 433.103 139.969 413.4 167.936 393.062C123.676 491.843 68.7707 457.352 34.2784 445.328Z" fill="#B6D09C"/>
<path id="Vector 5_7" d="M37.7794 444.092C98.2645 432.634 136.825 415.375 164.792 395.036C118.759 476.006 67.1032 458.613 37.7794 444.092Z" fill="#879973"/>
</g>
<path id="Vector 6_7" d="M144.975 415.076C144.276 417.08 147.853 415.59 167.749 393.598L100.991 424.258L71.6566 435.959L39.5006 444.539C40.6457 445.347 49.5539 446.04 70.0906 440.452C71.3715 440.285 73.6233 441.193 70.2022 445.394C71.0934 446.93 74.962 447.175 85.4878 436.626L110.64 427.622C111.303 428.057 111.813 429.869 108.544 433.632C108.4 435.216 108.672 437.477 113.097 434.607C116.906 423.677 130.199 418.873 145.218 410.871C145.218 410.871 146.194 411.579 144.975 415.076Z" fill="#707420"/>
</g>
</g>
</svg>
