<svg width="352" height="269" viewBox="0 0 352 269" fill="none" xmlns="http://www.w3.org/2000/svg">
<g filter="url(#filter0_d_8_7)">
<ellipse cx="174.1" cy="180.65" rx="170" ry="79.5" fill="#EDEDED"/>
</g>
<ellipse cx="173.6" cy="181.15" rx="116.5" ry="46" fill="#707420" fill-opacity="0.61"/>
<ellipse cx="187.1" cy="186.15" rx="83" ry="31" fill="#707420" fill-opacity="0.61"/>
<path d="M146.6 205.65C124.1 204.65 59.1001 177.15 49.1001 64.6495L298.6 64.1495C298.6 75.6495 297.8 111.25 270.6 155.65L270.508 155.8C264.941 164.911 250.638 188.318 221.6 200.65C212.6 205.65 184.6 209.65 146.6 205.65Z" fill="#E2E2E2"/>
<path d="M175.1 184.65C142.1 188.15 93.5001 179.55 65.1001 85.1495L276.1 90.6495C267.6 142.15 239.6 184.65 175.1 184.65Z" fill="#EDEDED"/>
<path d="M152.6 167.65C140.267 173.15 114.5 169.55 104.1 111.15L161.1 121.15C164.433 127.65 166.6 157.15 152.6 167.65Z" fill="#F5F5F5"/>
<path d="M245.257 151.865C252.252 144.978 264.164 127.598 255.852 113.174C254.134 111.844 250.251 110.75 248.469 117.013C246.372 128.87 236.083 146.802 206.224 161.323C204.97 162.211 199.293 165.705 200.733 171.863C206.027 174.359 222.342 173.855 245.257 151.865Z" fill="#F5F5F5"/>
<path d="M322.1 154.743C368.6 118.243 359.6 54.2434 297.1 66.7434L295.1 87.7434C308.6 83.5768 339.1 84.2435 331.1 116.243C326.6 128.743 308.1 163.261 260.1 164.743L251.1 176.243C259.6 179.243 285.1 182.243 322.1 154.743Z" fill="#E2E2E2"/>
<ellipse cx="173.6" cy="61.1495" rx="125.5" ry="61" fill="#F4F5E8"/>
<path fill-rule="evenodd" clip-rule="evenodd" d="M59.9211 67.6495C66.728 40.891 115.028 20.1495 173.6 20.1495C232.172 20.1495 280.472 40.891 287.279 67.6495C280.472 94.4081 232.172 115.15 173.6 115.15C115.028 115.15 66.728 94.4081 59.9211 67.6495Z" fill="#9CB385"/>
<path d="M40.5515 217.65C10.5516 198.65 1.05157 157.65 53.5515 133.15C55.8849 133.15 60.2516 134.85 59.0516 141.65C55.0516 148.15 38.0516 151.15 35.5516 178.65C38.0516 217.65 102.552 235.15 104.052 241.65C100.718 244.483 83.3516 243.65 40.5515 217.65Z" fill="#F5F5F5"/>
<path d="M239.332 246.58C261.832 242.58 310.832 226.58 329.332 184.08C331.944 178.08 324.332 172.58 319.332 179.08C315.666 189.08 301.832 217.58 251.832 238.08C248.832 240.58 237.332 242.98 239.332 246.58Z" fill="#F5F5F5"/>
<path d="M218.724 27.5305C241.724 30.5305 287.1 48.6495 284.1 74.6495C281.476 80.2686 273.6 93.1495 237.6 106.15C220.985 112.15 183.1 117.15 150.1 114.15C136.724 112.934 121.1 106.65 114.1 103.65C108.721 101.344 96.124 98.8305 87.724 78.0305C85.7048 73.0305 78.1001 60.6495 103.1 53.6495C114.1 50.5695 125.524 56.1305 136.724 42.5305C139.724 40.0305 140.624 31.6305 148.224 30.0305C155.724 28.5305 166.024 33.2305 193.224 30.0305C197.724 30.0305 206.224 25.9001 218.724 27.5305Z" fill="#B4CC9A"/>
<path d="M215.411 44.8399C211.218 35.4021 181.692 21.8942 173.888 49.8537C172.275 31.6417 141.411 26.8048 127.93 56.121C125.484 64.2808 127.011 83.3727 152.682 94.4621C156.418 94.4866 165.744 97.2639 173.162 108.176C175.205 104.809 182.466 96.8363 195.173 91.8814C212.105 85.8353 228.376 67.6676 215.411 44.8399Z" fill="#F1EAD0"/>
<path d="M144.17 86.6869C127.56 78.4288 119.256 44.5118 155.538 36.1799C149.169 38.8343 141.751 40.4565 137.316 52.3274C133.796 59.2829 132.511 76.1284 155.538 87.8666C158.844 88.4811 166.1 92.5118 172.067 99.2952C172.551 96.4197 169.922 89.2676 155.538 83.6639C144.17 77.0279 136.462 68.6224 141.751 50.3366C147.525 36.1149 168.075 32.1116 172.376 49.689C172.715 50.6821 172.873 51.6024 172.873 52.3274C172.746 51.3989 172.579 50.5198 172.376 49.689C170.922 45.4304 166.151 39.8305 156.344 42.521C146.911 46.6009 139.493 58.7422 151.507 73.1938C141.025 60.5855 149.652 45.0869 165.455 55.3505C163.923 53.7284 162.44 48.2131 153.281 50.3366C156.318 48.1738 163.794 46.4141 169.406 56.6777C169.757 55.3505 168.845 51.6933 162.392 47.6823C166.02 49.0832 173.518 50.897 173.518 63.756C175.378 50.7605 188.223 41.2182 199.382 51.6991C200.785 52.785 201.724 54.0119 202.141 54.7606C201.238 53.5934 200.316 52.5761 199.382 51.6991C198.253 50.8245 196.824 50.0414 195.126 49.6731C192.017 48.5154 185.414 48.2137 180.157 54.1345C180.302 54.0005 180.454 53.8651 180.613 53.7284C186.275 49.207 202.632 46.1859 204.425 64.3248C204.434 60.6758 208.678 50.4359 197.303 43.8482C193.487 41.2921 183.79 39.2472 175.534 51.5164C177.791 42.521 186.628 37.9348 198.755 41.415C207.685 46.7237 217.14 63.0187 195.126 80.1984C193.595 83.0003 182.694 86.4952 177.791 96.3459C178.732 94.4534 183.194 90.3868 189.16 87.2768C197.223 83.074 215.767 73.0464 210.526 51.5164C207.489 44.4626 197.255 32.7882 180.613 42.521C183.677 36.8435 201.399 28.7329 213.59 48.4933C217.46 57.7099 224.556 77.839 193.595 89.71C189.348 90.6931 179.388 95.1515 173.518 105.12C173.518 98.4842 155.538 92.3393 144.17 86.6869Z" fill="#F39BB3"/>
<path d="M312.6 68.1495C362.2 72.9495 342.6 116.15 340.6 118.65C343 80.6495 335.1 78.1495 312.6 68.1495Z" fill="#F4F4F4"/>
<defs>
<filter id="filter0_d_8_7" x="0.100098" y="101.15" width="348" height="167" filterUnits="userSpaceOnUse" color-interpolation-filters="sRGB">
<feFlood flood-opacity="0" result="BackgroundImageFix"/>
<feColorMatrix in="SourceAlpha" type="matrix" values="0 0 0 0 0 0 0 0 0 0 0 0 0 0 0 0 0 0 127 0" result="hardAlpha"/>
<feOffset dy="4"/>
<feGaussianBlur stdDeviation="2"/>
<feComposite in2="hardAlpha" operator="out"/>
<feColorMatrix type="matrix" values="0 0 0 0 0 0 0 0 0 0 0 0 0 0 0 0 0 0 0.25 0"/>
<feBlend mode="normal" in2="BackgroundImageFix" result="effect1_dropShadow_8_7"/>
<feBlend mode="normal" in="SourceGraphic" in2="effect1_dropShadow_8_7" result="shape"/>
</filter>
</defs>
</svg>
