<svg width="709" height="624" viewBox="0 0 709 624" fill="none" xmlns="http://www.w3.org/2000/svg">
<rect width="709" height="624" fill="#F1EAD0"/>
<path d="M150.329 299.713C243.653 319.045 312.684 350.201 355.645 382.363C287.656 226.156 203.314 280.698 150.329 299.713Z" fill="#B6D09C"/>
<path d="M155.707 301.667C248.621 319.786 307.854 347.079 350.815 379.241C280.102 251.2 200.752 278.705 155.707 301.667Z" fill="#879973"/>
<path d="M320.374 347.551C319.301 344.382 324.796 346.739 355.358 381.515L252.809 333.032L207.747 314.527L158.351 300.96C160.11 299.683 173.794 298.586 205.341 307.423C207.309 307.686 210.768 306.251 205.513 299.609C206.882 297.179 212.825 296.791 228.994 313.473L267.631 327.713C268.65 327.024 269.433 324.158 264.412 318.207C264.19 315.702 264.608 312.128 271.405 316.667C277.257 333.949 297.676 341.547 320.747 354.201C320.747 354.201 322.247 353.081 320.374 347.551Z" fill="#707420"/>
<path d="M352.877 386.746C302.945 240.429 417.741 206.072 477.406 189.142C485.073 353.685 417.18 385.633 352.877 386.746Z" fill="#B6D09C"/>
<path d="M472.909 193.752C335.026 229.659 331.223 333.852 355.108 381.888L472.909 193.752Z" fill="#879973"/>
<path d="M356.01 381.476C379.042 306.948 429.268 235.402 472.466 195.234C479.934 331.179 420.774 381.435 356.01 381.476Z" fill="#6F805E"/>
<path d="M380.152 366.004C376.673 367.589 369.004 370.074 355.868 382.102C360.315 356.15 389.477 282.674 470.545 196.386C470.545 196.386 470.065 199.626 469.817 206.792C465.909 208.992 453.8 219.376 436.63 243.315C440.029 246.384 445.436 253.156 439.869 255.692C434.615 255.566 421.227 262.168 409.709 289.577C408.851 290.808 409.154 293.608 417.227 294.968C408.632 295.945 389.789 304.695 383.171 331.888C383.171 331.888 388.842 330.564 392.463 338.989C386.78 339.479 373.473 345.624 365.712 366.285C368.321 365.096 376.893 358.422 380.152 366.004Z" fill="#707420"/>
</svg>
