<svg width="352" height="268" viewBox="0 0 352 268" fill="none" xmlns="http://www.w3.org/2000/svg">
<g id="&#209;&#135;&#208;&#176;&#209;&#136;&#208;&#186;&#208;&#176;">
<g id="&#209;&#130;&#208;&#176;&#209;&#128;&#208;&#181;&#208;&#187;&#208;&#186;&#208;&#176;" filter="url(#filter0_d_405_2)">
<ellipse cx="174" cy="180.5" rx="170" ry="79.5" fill="#EDEDED"/>
</g>
<ellipse id="&#209;&#130;&#208;&#176;&#209;&#128;&#208;&#181;&#208;&#187;&#208;&#186;&#208;&#176;_2" cx="173.5" cy="181" rx="116.5" ry="46" fill="#707420" fill-opacity="0.61"/>
<ellipse id="&#209;&#130;&#208;&#176;&#209;&#128;&#208;&#181;&#208;&#187;&#208;&#186;&#208;&#176;_3" cx="187" cy="186" rx="83" ry="31" fill="#707420" fill-opacity="0.61"/>
<path id="&#208;&#186;&#209;&#128;&#209;&#131;&#208;&#182;&#208;&#186;&#208;&#176;" d="M146.5 205.5C124 204.5 59 177 49 64.5L298.5 64C298.5 75.5 297.7 111.1 270.5 155.5L270.408 155.651C264.841 164.761 250.538 188.169 221.5 200.5C212.5 205.5 184.5 209.5 146.5 205.5Z" fill="#E2E2E2"/>
<path id="&#208;&#191;&#209;&#143;&#209;&#130;&#208;&#189;&#208;&#190; &#208;&#186;&#209;&#128;&#209;&#131;&#208;&#182;&#208;&#186;&#208;&#176;" d="M175 184.5C142 188 93.4 179.4 65 85L276 90.5C267.5 142 239.5 184.5 175 184.5Z" fill="#EDEDED"/>
<path id="&#208;&#191;&#209;&#143;&#209;&#130;&#208;&#189;&#208;&#190; &#208;&#186;&#209;&#128;&#209;&#131;&#208;&#182;&#208;&#186;&#208;&#176; &#208;&#177;&#208;&#181;&#208;&#187;&#208;&#190;&#208;&#181;" d="M152.5 167.5C140.167 173 114.4 169.4 104 111L161 121C164.333 127.5 166.5 157 152.5 167.5Z" fill="#F5F5F5"/>
<path id="&#208;&#191;&#209;&#143;&#209;&#130;&#208;&#189;&#208;&#190; &#208;&#177;&#208;&#181;&#208;&#187;&#208;&#190;&#208;&#181; &#208;&#186;&#209;&#128;&#209;&#131;&#208;&#182;&#208;&#186;&#208;&#176; 2 " d="M245.157 151.715C252.152 144.828 264.064 127.448 255.752 113.024C254.034 111.694 250.151 110.6 248.369 116.863C246.272 128.721 235.983 146.652 206.124 161.173C204.87 162.062 199.192 165.555 200.633 171.714C205.927 174.21 222.242 173.705 245.157 151.715Z" fill="#F5F5F5"/>
<path id="&#209;&#131;&#209;&#136;&#208;&#186;&#208;&#190;" d="M322 154.594C368.5 118.094 359.5 54.0939 297 66.5939L295 87.5939C308.5 83.4272 339 84.0939 331 116.094C326.5 128.594 308 163.112 260 164.594L251 176.094C259.5 179.094 285 182.094 322 154.594Z" fill="#E2E2E2"/>
<ellipse id="&#208;&#178;&#208;&#189;&#208;&#181;&#209;&#136;&#208;&#189;&#209;&#143;&#209;&#143; &#208;&#186;&#208;&#176;&#208;&#185;&#208;&#188;&#208;&#176;" cx="173.5" cy="61" rx="125.5" ry="61" fill="#F4F5E8"/>
<ellipse id="&#208;&#178;&#208;&#189;&#209;&#131;&#209;&#130;&#209;&#128;&#208;&#181;&#208;&#189;&#208;&#189;&#209;&#143;&#209;&#143; &#208;&#186;&#208;&#176;&#208;&#185;&#208;&#188;&#208;&#176;" cx="173.5" cy="61" rx="114.5" ry="54" fill="#E2E2E2"/>
<path id="&#209;&#130;&#208;&#181;&#208;&#189;&#209;&#140; &#209;&#130;&#208;&#176;&#209;&#128;&#208;&#181;&#208;&#187;&#208;&#186;&#208;&#176; 2 " d="M40.4515 217.5C10.4515 198.5 0.951477 157.5 53.4514 133C55.7848 133 60.1515 134.7 58.9515 141.5C54.9515 148 37.9515 151 35.4515 178.5C37.9515 217.5 102.451 235 103.951 241.5C100.618 244.333 83.2515 243.5 40.4515 217.5Z" fill="#F5F5F5"/>
<path id="&#209;&#130;&#208;&#181;&#208;&#189;&#209;&#140; &#209;&#130;&#208;&#176;&#209;&#128;&#208;&#181;&#208;&#187;&#208;&#186;&#208;&#176; 1" d="M239.232 246.43C261.732 242.43 310.732 226.43 329.232 183.93C331.844 177.93 324.232 172.43 319.232 178.93C315.565 188.93 301.732 217.43 251.732 237.93C248.732 240.43 237.232 242.83 239.232 246.43Z" fill="#F5F5F5"/>
<path id="Vector 9" d="M312.5 68C362.1 72.8 342.5 116 340.5 118.5C342.9 80.5 335 78 312.5 68Z" fill="#F4F4F4"/>
<g id="Group 16">
<g id="0" filter="url(#filter1_d_405_2)">
<path d="M179.04 172.96C175.92 172.96 173.28 172.253 171.12 170.84C168.987 169.427 167.36 167.493 166.24 165.04C165.147 162.587 164.6 159.8 164.6 156.68C164.6 153.427 165.133 150.573 166.2 148.12C167.267 145.667 168.867 143.76 171 142.4C173.133 141.04 175.813 140.36 179.04 140.36C182.293 140.36 184.987 141.053 187.12 142.44C189.253 143.8 190.84 145.707 191.88 148.16C192.947 150.613 193.48 153.453 193.48 156.68C193.48 159.853 192.893 162.667 191.72 165.12C190.573 167.573 188.92 169.493 186.76 170.88C184.627 172.267 182.053 172.96 179.04 172.96ZM179.04 170.56C181.653 170.56 183.853 169.973 185.64 168.8C187.427 167.6 188.773 165.96 189.68 163.88C190.613 161.773 191.08 159.373 191.08 156.68C191.08 153.88 190.653 151.44 189.8 149.36C188.947 147.253 187.627 145.627 185.84 144.48C184.08 143.333 181.813 142.76 179.04 142.76C176.32 142.76 174.067 143.333 172.28 144.48C170.52 145.6 169.2 147.2 168.32 149.28C167.44 151.36 167 153.827 167 156.68C167 159.427 167.453 161.84 168.36 163.92C169.267 166 170.613 167.627 172.4 168.8C174.187 169.973 176.4 170.56 179.04 170.56Z" fill="#403539"/>
</g>
<g id="4" filter="url(#filter2_d_405_2)">
<path d="M135.96 160.904C135.683 160.861 135.459 160.744 135.288 160.552C135.117 160.381 135.043 160.157 135.064 159.88L135.256 155.976C134.744 155.997 134.243 156.008 133.752 156.008C133.283 156.008 132.803 156.008 132.312 156.008C131.203 156.008 130.136 155.987 129.112 155.944C128.109 155.88 127.139 155.784 126.2 155.656C124.173 155.315 122.68 154.749 121.72 153.96C120.76 153.171 120.28 152.104 120.28 150.76C120.28 149.565 120.653 148.093 121.4 146.344C122.253 144.317 123.416 142.323 124.888 140.36C126.381 138.376 127.992 136.403 129.72 134.44C129.912 134.227 130.136 134.12 130.392 134.12C130.669 134.12 130.904 134.216 131.096 134.408C131.331 134.621 131.448 134.835 131.448 135.048C131.448 135.325 131.341 135.549 131.128 135.72C130.381 136.381 129.603 137.203 128.792 138.184C127.981 139.144 127.192 140.179 126.424 141.288C125.656 142.376 124.963 143.475 124.344 144.584C123.725 145.693 123.224 146.717 122.84 147.656C122.349 148.872 122.104 149.853 122.104 150.6C122.104 151.304 122.317 151.88 122.744 152.328C123.171 152.776 123.853 153.149 124.792 153.448C125.688 153.725 126.765 153.928 128.024 154.056C129.283 154.163 130.552 154.216 131.832 154.216C132.451 154.216 133.059 154.205 133.656 154.184C134.253 154.163 134.819 154.131 135.352 154.088L135.96 141.928C136.003 141.565 136.12 141.32 136.312 141.192C136.525 141.064 136.749 141 136.984 141C137.347 141.043 137.581 141.16 137.688 141.352C137.816 141.544 137.88 141.768 137.88 142.024L137.272 153.928C137.677 153.907 137.997 153.885 138.232 153.864C138.467 153.843 138.701 153.811 138.936 153.768C139.192 153.725 139.544 153.672 139.992 153.608C140.44 153.523 141.091 153.416 141.944 153.288C142.264 153.224 142.52 153.288 142.712 153.48C142.925 153.651 143.043 153.843 143.064 154.056C143.171 154.675 142.915 155.048 142.296 155.176C141.784 155.261 141.389 155.325 141.112 155.368C140.856 155.411 140.632 155.443 140.44 155.464C140.269 155.485 140.067 155.517 139.832 155.56C139.619 155.581 139.309 155.613 138.904 155.656C138.499 155.699 137.923 155.763 137.176 155.848L136.984 159.976C136.963 160.317 136.845 160.552 136.632 160.68C136.419 160.829 136.195 160.904 135.96 160.904Z" fill="#403539"/>
</g>
<g id="4_2" filter="url(#filter3_d_405_2)">
<path d="M228.96 160.904C228.683 160.861 228.459 160.744 228.288 160.552C228.117 160.381 228.043 160.157 228.064 159.88L228.256 155.976C227.744 155.997 227.243 156.008 226.752 156.008C226.283 156.008 225.803 156.008 225.312 156.008C224.203 156.008 223.136 155.987 222.112 155.944C221.109 155.88 220.139 155.784 219.2 155.656C217.173 155.315 215.68 154.749 214.72 153.96C213.76 153.171 213.28 152.104 213.28 150.76C213.28 149.565 213.653 148.093 214.4 146.344C215.253 144.317 216.416 142.323 217.888 140.36C219.381 138.376 220.992 136.403 222.72 134.44C222.912 134.227 223.136 134.12 223.392 134.12C223.669 134.12 223.904 134.216 224.096 134.408C224.331 134.621 224.448 134.835 224.448 135.048C224.448 135.325 224.341 135.549 224.128 135.72C223.381 136.381 222.603 137.203 221.792 138.184C220.981 139.144 220.192 140.179 219.424 141.288C218.656 142.376 217.963 143.475 217.344 144.584C216.725 145.693 216.224 146.717 215.84 147.656C215.349 148.872 215.104 149.853 215.104 150.6C215.104 151.304 215.317 151.88 215.744 152.328C216.171 152.776 216.853 153.149 217.792 153.448C218.688 153.725 219.765 153.928 221.024 154.056C222.283 154.163 223.552 154.216 224.832 154.216C225.451 154.216 226.059 154.205 226.656 154.184C227.253 154.163 227.819 154.131 228.352 154.088L228.96 141.928C229.003 141.565 229.12 141.32 229.312 141.192C229.525 141.064 229.749 141 229.984 141C230.347 141.043 230.581 141.16 230.688 141.352C230.816 141.544 230.88 141.768 230.88 142.024L230.272 153.928C230.677 153.907 230.997 153.885 231.232 153.864C231.467 153.843 231.701 153.811 231.936 153.768C232.192 153.725 232.544 153.672 232.992 153.608C233.44 153.523 234.091 153.416 234.944 153.288C235.264 153.224 235.52 153.288 235.712 153.48C235.925 153.651 236.043 153.843 236.064 154.056C236.171 154.675 235.915 155.048 235.296 155.176C234.784 155.261 234.389 155.325 234.112 155.368C233.856 155.411 233.632 155.443 233.44 155.464C233.269 155.485 233.067 155.517 232.832 155.56C232.619 155.581 232.309 155.613 231.904 155.656C231.499 155.699 230.923 155.763 230.176 155.848L229.984 159.976C229.963 160.317 229.845 160.552 229.632 160.68C229.419 160.829 229.195 160.904 228.96 160.904Z" fill="#403539"/>
</g>
</g>
</g>
<defs>
<filter id="filter0_d_405_2" x="0" y="101" width="348" height="167" filterUnits="userSpaceOnUse" color-interpolation-filters="sRGB">
<feFlood flood-opacity="0" result="BackgroundImageFix"/>
<feColorMatrix in="SourceAlpha" type="matrix" values="0 0 0 0 0 0 0 0 0 0 0 0 0 0 0 0 0 0 127 0" result="hardAlpha"/>
<feOffset dy="4"/>
<feGaussianBlur stdDeviation="2"/>
<feComposite in2="hardAlpha" operator="out"/>
<feColorMatrix type="matrix" values="0 0 0 0 0 0 0 0 0 0 0 0 0 0 0 0 0 0 0.25 0"/>
<feBlend mode="normal" in2="BackgroundImageFix" result="effect1_dropShadow_405_2"/>
<feBlend mode="normal" in="SourceGraphic" in2="effect1_dropShadow_405_2" result="shape"/>
</filter>
<filter id="filter1_d_405_2" x="160.6" y="140.36" width="36.88" height="40.6" filterUnits="userSpaceOnUse" color-interpolation-filters="sRGB">
<feFlood flood-opacity="0" result="BackgroundImageFix"/>
<feColorMatrix in="SourceAlpha" type="matrix" values="0 0 0 0 0 0 0 0 0 0 0 0 0 0 0 0 0 0 127 0" result="hardAlpha"/>
<feOffset dy="4"/>
<feGaussianBlur stdDeviation="2"/>
<feComposite in2="hardAlpha" operator="out"/>
<feColorMatrix type="matrix" values="0 0 0 0 0 0 0 0 0 0 0 0 0 0 0 0 0 0 0.25 0"/>
<feBlend mode="normal" in2="BackgroundImageFix" result="effect1_dropShadow_405_2"/>
<feBlend mode="normal" in="SourceGraphic" in2="effect1_dropShadow_405_2" result="shape"/>
</filter>
<filter id="filter2_d_405_2" x="116.28" y="134.12" width="30.944" height="34.7841" filterUnits="userSpaceOnUse" color-interpolation-filters="sRGB">
<feFlood flood-opacity="0" result="BackgroundImageFix"/>
<feColorMatrix in="SourceAlpha" type="matrix" values="0 0 0 0 0 0 0 0 0 0 0 0 0 0 0 0 0 0 127 0" result="hardAlpha"/>
<feOffset dy="4"/>
<feGaussianBlur stdDeviation="2"/>
<feComposite in2="hardAlpha" operator="out"/>
<feColorMatrix type="matrix" values="0 0 0 0 0 0 0 0 0 0 0 0 0 0 0 0 0 0 0.25 0"/>
<feBlend mode="normal" in2="BackgroundImageFix" result="effect1_dropShadow_405_2"/>
<feBlend mode="normal" in="SourceGraphic" in2="effect1_dropShadow_405_2" result="shape"/>
</filter>
<filter id="filter3_d_405_2" x="209.28" y="134.12" width="30.9441" height="34.7841" filterUnits="userSpaceOnUse" color-interpolation-filters="sRGB">
<feFlood flood-opacity="0" result="BackgroundImageFix"/>
<feColorMatrix in="SourceAlpha" type="matrix" values="0 0 0 0 0 0 0 0 0 0 0 0 0 0 0 0 0 0 127 0" result="hardAlpha"/>
<feOffset dy="4"/>
<feGaussianBlur stdDeviation="2"/>
<feComposite in2="hardAlpha" operator="out"/>
<feColorMatrix type="matrix" values="0 0 0 0 0 0 0 0 0 0 0 0 0 0 0 0 0 0 0.25 0"/>
<feBlend mode="normal" in2="BackgroundImageFix" result="effect1_dropShadow_405_2"/>
<feBlend mode="normal" in="SourceGraphic" in2="effect1_dropShadow_405_2" result="shape"/>
</filter>
</defs>
</svg>
