<svg width="753" height="960" viewBox="0 0 753 960" fill="none" xmlns="http://www.w3.org/2000/svg">
<g id="leaf_down">
<g id="Group 3">
<path id="Vector 1" d="M150.963 584.314C53.1973 592.028 63.5664 669.158 69.4916 709.009C166.665 671.472 167.257 622.88 150.963 584.314Z" fill="#B6D09C"/>
<path id="Vector 3" d="M70.9728 705.153C55.4192 613.881 114.671 584.957 148.741 586.886L70.9728 705.153Z" fill="#879973"/>
<path id="Vector 2" d="M148.741 587.528C111.709 620.309 83.564 668.515 71.7136 704.51C152.296 674.172 165.776 626.093 148.741 587.528Z" fill="#6F805E"/>
<path id="Vector 7" d="M146.153 605.859C146.153 603.382 145.57 598.181 149.065 587.283C135.229 596.571 100.42 632.732 71.8735 703.071C71.8735 703.071 73.6213 701.957 77.6993 699.975C77.9421 697.086 80.7579 687.22 90.0792 670.874C92.7493 672.112 98.0896 673.598 98.0896 669.635C96.6332 666.539 96.9245 656.88 109.741 643.01C110.227 642.185 111.926 641.648 114.839 646.106C113.14 640.74 113.237 627.283 127.219 616.385C127.219 616.385 127.947 620.1 133.773 620.1C132.559 616.592 132.608 607.097 142.511 597.19C142.511 599.048 140.909 605.859 146.153 605.859Z" fill="#707420"/>
</g>
<g id="Group 5">
<path id="Vector 1_2" d="M178.511 690.466C180.348 788.518 257.962 782.792 298.096 779.267C266.453 680.018 217.983 676.513 178.511 690.466Z" fill="#B6D09C"/>
<path id="Vector 3_2" d="M294.336 777.557C202.296 787.611 176.976 726.731 180.944 692.838L294.336 777.557Z" fill="#879973"/>
<path id="Vector 2_2" d="M181.585 692.876C212.087 731.808 258.519 762.792 293.738 776.779C268.286 694.522 221.103 678.184 181.585 692.876Z" fill="#6F805E"/>
<path id="Vector 7_2" d="M199.728 696.559C197.256 696.411 192.029 696.68 181.36 692.538C189.802 706.906 223.81 743.821 292.312 776.533C292.312 776.533 291.304 774.721 289.571 770.532C286.701 770.116 277.022 766.714 261.264 756.429C262.66 753.838 264.463 748.597 260.508 748.359C257.33 749.627 247.706 748.758 234.629 735.132C233.834 734.598 233.4 732.87 238.025 730.229C232.567 731.604 219.14 730.7 209.1 716.09C209.1 716.09 212.852 715.586 213.201 709.77C209.626 710.772 200.152 710.154 190.857 699.674C192.711 699.785 199.414 701.793 199.728 696.559Z" fill="#707420"/>
</g>
<g id="leaf_front">
<path id="Vector 1_3" d="M348.32 662.598C446.365 664.817 443.854 587.033 441.992 546.787C341.519 574.298 336.012 622.581 348.32 662.598Z" fill="#B6D09C"/>
<path id="Vector 3_3" d="M440.128 550.474C446.366 642.851 384.491 665.63 350.791 660.265L440.128 550.474Z" fill="#879973"/>
<path id="Vector 2_3" d="M350.856 659.625C391.016 630.76 423.894 585.649 439.326 551.039C356.087 573.067 337.811 619.534 350.856 659.625Z" fill="#6F805E"/>
<path id="Vector 7_3" d="M355.286 641.65C355.036 644.114 355.089 649.348 350.509 659.836C365.214 651.996 403.503 619.543 439.021 552.453C439.021 552.453 437.169 553.385 432.912 554.944C432.378 557.794 428.578 567.324 417.651 582.644C415.12 581.141 409.957 579.123 409.556 583.065C410.692 586.292 409.424 595.873 395.27 608.374C394.703 609.147 392.959 609.508 390.512 604.778C391.659 610.289 390.201 623.667 375.188 633.094C375.188 633.094 374.839 629.324 369.044 628.735C369.896 632.348 368.887 641.789 358.031 650.643C358.219 648.795 360.502 642.181 355.286 641.65Z" fill="#707420"/>
</g>
<g id="Group 10">
<path id="Vector 1_4" d="M470.154 802.662C504.76 894.422 575.962 863.005 612.591 846.228C549.503 763.333 502.664 776.282 470.154 802.662Z" fill="#B6D09C"/>
<path id="Vector 3_4" d="M608.475 845.878C525.133 886.209 480.867 837.342 473.241 804.081L608.475 845.878Z" fill="#879973"/>
<path id="Vector 2_4" d="M473.859 803.902C515.647 830.353 569.781 843.976 607.651 845.345C556.093 776.383 506.163 776.811 473.859 803.902Z" fill="#6F805E"/>
<path id="Vector 7_4" d="M492.186 801.289C489.807 801.978 484.973 803.984 473.533 803.658C486.304 814.365 530.721 837.74 606.225 845.592C606.225 845.592 604.668 844.223 601.63 840.857C598.787 841.428 588.528 841.468 570.234 837.062C570.68 834.153 570.622 828.61 566.816 829.712C564.247 831.972 554.888 834.38 538 825.927C537.072 825.691 536.084 824.208 539.556 820.17C534.874 823.295 521.921 826.945 507.564 816.547C507.564 816.547 510.93 814.814 509.309 809.218C506.277 811.36 497.144 813.955 484.873 807.198C486.657 806.681 493.645 806.325 492.186 801.289Z" fill="#707420"/>
<path id="Vector 8" d="M327.936 834.314L329.436 822.814C357.436 822.814 515.436 837.814 641.436 627.314H650.436C588.436 733.814 456.936 849.314 327.936 834.314Z" fill="#B6D09C"/>
<path id="Vector 1_5" d="M528.384 764.388C591.48 689.31 529.243 642.585 496.689 618.848C455.261 714.428 489.471 748.942 528.384 764.388Z" fill="#B6D09C"/>
<path id="Vector 3_5" d="M498.398 622.609C574.348 675.561 553.388 738.076 528.111 761.001L498.398 622.609Z" fill="#879973"/>
<path id="Vector 2_5" d="M527.653 760.55C530.276 711.163 515.671 657.286 498.336 623.588C463.418 702.295 488.221 745.631 527.653 760.55Z" fill="#6F805E"/>
<path id="Vector 7_5" d="M516.407 745.845C518.172 747.582 522.287 750.816 527.6 760.953C530.689 744.577 529.344 694.403 499.249 624.712C499.249 624.712 498.817 626.739 497.368 631.035C499.256 633.235 504.311 642.163 509.42 660.274C506.664 661.308 501.858 664.071 504.682 666.851C507.91 667.985 514.588 674.97 515.48 693.834C515.727 694.759 514.918 696.346 509.697 695.294C514.713 697.848 524.234 707.359 522.19 724.968C522.19 724.968 519.032 722.88 514.945 727.031C518.296 728.628 525.028 735.324 525.139 749.332C523.815 748.028 520.086 742.108 516.407 745.845Z" fill="#707420"/>
<path id="Vector 4" d="M752.481 563.536C696.331 589.754 657.312 619.507 634.936 645.871C654.63 539.435 716.125 559.992 752.481 563.536Z" fill="#B6D09C"/>
<path id="Vector 5" d="M749.371 565.563C693.299 590.973 659.902 616.846 637.525 643.211C663.147 553.664 717.448 558.374 749.371 565.563Z" fill="#879973"/>
<path id="Vector 6" d="M652.052 619.06C652.258 616.948 649.134 619.24 634.991 645.306L692.626 599.756L718.37 581.462L747.593 565.535C746.289 565.02 737.469 566.449 718.832 576.727C717.626 577.191 715.224 576.84 717.557 571.951C716.328 570.668 712.511 571.343 704.772 584.078L682.456 598.765C681.709 598.498 680.786 596.858 683.074 592.429C682.84 590.856 682.043 588.724 678.42 592.557C677.298 604.077 665.514 611.883 652.809 623.203C652.809 623.203 651.693 622.746 652.052 619.06Z" fill="#707420"/>
</g>
<g id="Group 11">
<path id="Vector 1_6" d="M371.666 293.669C452.748 238.502 405.505 176.658 380.602 144.987C314.821 225.761 338.396 268.255 371.666 293.669Z" fill="#B6D09C"/>
<path id="Vector 3_6" d="M381.228 149.07C439.984 220.625 402.866 275.119 372.321 290.335L381.228 149.07Z" fill="#879973"/>
<path id="Vector 2_6" d="M372.003 289.777C387.913 242.949 388.456 187.13 380.903 149.996C325.961 216.293 338.089 264.73 372.003 289.777Z" fill="#6F805E"/>
<path id="Vector 7_6" d="M365.163 272.574C366.391 274.725 369.475 278.953 371.842 290.15C379.254 275.225 391.558 226.564 381.477 151.324C381.477 151.324 380.512 153.159 377.953 156.901C379.175 159.531 381.62 169.495 381.629 188.312C378.696 188.561 373.321 189.918 375.286 193.359C378.086 195.326 382.621 203.859 378.367 222.258C378.354 223.216 377.145 224.524 372.405 222.097C376.541 225.915 383.128 237.65 376.388 254.046C376.388 254.046 373.914 251.18 368.854 254.069C371.648 256.514 376.312 264.783 372.623 278.297C371.702 276.684 369.717 269.975 365.163 272.574Z" fill="#707420"/>
<path id="Vector 8_2" d="M435.798 424.493L424.267 425.733C417.699 398.514 395.215 241.404 161.031 168.301L158.92 159.552C276.993 194.839 420.118 295.574 435.798 424.493Z" fill="#B6D09C"/>
<path id="Vector 1_7" d="M320.8 246.042C233.016 202.32 202.195 273.781 186.757 310.995C289.388 328.845 314.913 287.493 320.8 246.042Z" fill="#B6D09C"/>
<path id="Vector 3_7" d="M190.012 308.452C223.67 222.199 289.357 227.909 317.571 247.103L190.012 308.452Z" fill="#879973"/>
<path id="Vector 2_7" d="M317.241 247.653C268.616 256.689 219.669 283.526 190.978 308.282C275.68 323.762 311.989 289.485 317.241 247.653Z" fill="#6F805E"/>
<path id="Vector 7_7" d="M305.584 262.035C306.859 259.912 309.038 255.153 317.645 247.611C301.001 248.449 252.543 261.527 191.856 307.131C191.856 307.131 193.928 307.075 198.445 307.476C200.14 305.124 207.634 298.116 224.041 288.902C225.692 291.338 229.505 295.362 231.545 291.964C231.891 288.56 237.114 280.43 255.242 275.138C256.083 274.68 257.816 275.095 258.018 280.417C259.324 274.941 266.336 263.455 283.933 261.311C283.933 261.311 282.645 264.871 287.639 267.87C288.405 264.238 293.335 256.123 306.926 252.729C305.969 254.322 301.089 259.336 305.584 262.035Z" fill="#707420"/>
<path id="Vector 4_2" d="M72.9822 75.3165C111.641 123.75 149.717 154.699 180.595 170.267C72.5088 176.091 78.0664 111.489 72.9822 75.3165Z" fill="#B6D09C"/>
<path id="Vector 5_2" d="M75.6821 77.8647C113.537 126.411 146.523 152.806 177.401 168.374C84.3425 164.474 76.1823 110.583 75.6821 77.8647Z" fill="#879973"/>
<path id="Vector 6_2" d="M150.516 159.918C148.415 160.213 151.376 162.712 180.033 170.346L122.233 125.004L98.4098 104.271L76.0721 79.5998C75.8776 80.9877 79.3357 89.2264 93.6987 104.933C94.4325 105.996 94.6554 108.413 89.3552 107.292C88.3966 108.788 89.9478 112.34 104.143 116.875L123.655 135.123C123.571 135.912 122.193 137.194 117.352 136.009C115.877 136.605 113.991 137.881 118.568 140.503C130.029 138.892 140.381 148.515 154.367 158.211C154.367 158.211 154.184 159.402 150.516 159.918Z" fill="#707420"/>
</g>
<g id="Group 2">
<path id="Vector 4_3" d="M121.658 796.421C64.8832 821.259 25.1493 850.049 2.13502 875.858C24.4254 769.935 85.3996 791.99 121.658 796.421Z" fill="#B6D09C"/>
<path id="Vector 5_3" d="M118.499 798.371C61.8226 822.403 27.803 847.452 4.78872 873.262C32.5916 784.368 86.7616 790.404 118.499 798.371Z" fill="#879973"/>
<path id="Vector 6_3" d="M19.9017 849.473C20.1591 847.367 16.9799 849.582 2.20399 875.295L60.9354 831.167L87.1189 813.508L116.722 798.3C115.432 797.753 106.579 798.966 87.696 808.785C86.4795 809.22 84.0865 808.81 86.5382 803.98C85.3413 802.667 81.5087 803.248 73.4611 815.791L50.7928 829.928C50.052 829.643 49.1694 827.98 51.565 823.609C51.3701 822.031 50.6247 819.879 46.9098 823.623C45.5058 835.112 33.5354 842.627 20.5565 853.634C20.5565 853.634 19.4524 853.149 19.9017 849.473Z" fill="#707420"/>
</g>
<g id="Group 14">
<path id="Vector 4_4" d="M709.459 451.183C652.684 476.021 612.95 504.811 589.936 530.62C612.226 424.697 673.2 446.752 709.459 451.183Z" fill="#B6D09C"/>
<path id="Vector 5_4" d="M706.3 453.133C649.623 477.166 615.604 502.214 592.59 528.024C620.392 439.13 674.562 445.166 706.3 453.133Z" fill="#879973"/>
<path id="Vector 6_4" d="M607.702 504.235C607.96 502.129 604.781 504.345 590.005 530.057L648.736 485.929L674.92 468.27L704.523 453.062C703.232 452.516 694.38 453.728 675.497 463.547C674.28 463.982 671.887 463.573 674.339 458.742C673.142 457.43 669.31 458.011 661.262 470.553L638.594 484.69C637.853 484.405 636.97 482.743 639.366 478.371C639.171 476.793 638.426 474.642 634.711 478.385C633.307 489.874 621.336 497.389 608.357 508.396C608.357 508.396 607.253 507.912 607.702 504.235Z" fill="#707420"/>
</g>
<g id="Group 9">
<path id="Vector 4_5" d="M257.586 405.314C289.128 458.657 322.525 494.605 350.936 514.319C243.091 505.042 257.586 441.842 257.586 405.314Z" fill="#B6D09C"/>
<path id="Vector 5_5" d="M259.906 408.214C290.636 461.556 319.626 492.286 348.037 512C256.427 495.185 255.847 440.683 259.906 408.214Z" fill="#879973"/>
<path id="Vector 6_5" d="M322.59 499.884C320.468 499.884 323.053 502.771 350.368 514.319L299.442 461.374L278.737 437.526L260.05 409.986C259.664 411.333 261.942 419.973 273.979 437.526C274.558 438.681 274.442 441.106 269.35 439.258C268.192 440.605 269.234 444.339 282.66 450.806L299.442 471.592C299.249 472.362 297.706 473.439 293.076 471.592C291.533 471.977 289.489 472.978 293.655 476.211C305.229 476.211 314.141 487.181 326.641 498.729C326.641 498.729 326.294 499.884 322.59 499.884Z" fill="#707420"/>
</g>
<g id="Group 8">
<path id="Vector 4_6" d="M234.586 850.314C266.128 903.657 299.525 939.605 327.936 959.319C220.091 950.042 234.586 886.842 234.586 850.314Z" fill="#B6D09C"/>
<path id="Vector 5_6" d="M236.906 853.214C267.636 906.556 296.626 937.286 325.037 957C233.427 940.185 232.847 885.683 236.906 853.214Z" fill="#879973"/>
<path id="Vector 6_6" d="M299.59 944.884C297.468 944.884 300.053 947.771 327.368 959.319L276.442 906.374L255.737 882.526L237.05 854.986C236.664 856.333 238.942 864.973 250.979 882.526C251.558 883.681 251.442 886.106 246.35 884.258C245.192 885.605 246.234 889.339 259.66 895.806L276.442 916.592C276.249 917.362 274.706 918.439 270.076 916.592C268.533 916.977 266.489 917.978 270.655 921.211C282.229 921.211 291.141 932.181 303.641 943.729C303.641 943.729 303.294 944.884 299.59 944.884Z" fill="#707420"/>
</g>
<g id="Group 12">
<path id="Vector 4_7" d="M0.214175 431.642C60.9665 419.417 105.905 399.715 133.872 379.377C89.6121 478.157 34.7065 443.666 0.214175 431.642Z" fill="#B6D09C"/>
<path id="Vector 5_7" d="M3.71517 430.407C64.2003 418.948 102.761 401.689 130.727 381.351C84.6945 462.32 33.039 444.927 3.71517 430.407Z" fill="#879973"/>
<path id="Vector 6_7" d="M110.911 401.391C110.212 403.395 113.789 401.904 133.685 379.913L66.927 410.572L37.5924 422.274L5.43635 430.854C6.58152 431.661 15.4896 432.355 36.0263 426.766C37.3073 426.6 39.5591 427.507 36.138 431.708C37.0292 433.244 40.8978 433.49 51.4236 422.941L76.5756 413.936C77.239 414.372 77.7488 416.184 74.4801 419.947C74.3356 421.531 74.6076 423.791 79.0323 420.921C82.8422 409.992 96.1348 405.188 111.154 397.186C111.154 397.186 112.13 397.894 110.911 401.391Z" fill="#707420"/>
</g>
</g>
</svg>
