<svg width="514" height="315" viewBox="0 0 514 315" fill="none" xmlns="http://www.w3.org/2000/svg">
<path d="M190.265 52.9881C194.383 52.028 197.295 51.5849 199.001 51.6586C200.707 51.7323 201.453 52.2447 201.239 53.1957C198.114 66.8601 195.869 80.3609 194.505 93.6981C193.205 107.024 192.489 119.817 192.357 132.08C192.215 144.279 192.521 155.744 193.277 166.474C194.096 177.193 195.094 186.771 196.27 195.21C197.51 203.638 198.793 210.723 200.12 216.465C201.51 222.195 202.71 226.204 203.72 228.49C206.504 235.068 209.227 240.616 211.889 245.134C214.613 249.64 217.255 253.348 219.813 256.258C222.434 259.156 224.927 261.362 227.291 262.876C229.667 264.453 231.881 265.506 233.932 266.036C236.058 266.618 238.019 266.84 239.816 266.701C241.613 266.563 243.18 266.239 244.518 265.73C245.867 265.284 246.979 264.785 247.852 264.232C248.726 263.679 249.34 263.305 249.694 263.109C250.403 262.717 251.081 262.689 251.729 263.024C252.377 263.359 252.854 263.824 253.16 264.418C253.54 265.064 253.7 265.75 253.64 266.477C253.642 267.193 253.315 267.709 252.658 268.027C252.19 268.309 251.579 268.878 250.827 269.734C250.149 270.641 249.194 271.632 247.962 272.707C246.792 273.77 245.328 274.823 243.569 275.866C241.884 276.96 239.827 277.798 237.396 278.379C234.977 279.024 232.173 279.349 228.985 279.356C225.808 279.425 222.137 278.935 217.971 277.886C212.717 276.583 208.023 274.266 203.889 270.932C199.829 267.65 196.213 263.603 193.041 258.789C189.932 253.964 187.252 248.473 185.002 242.316C182.764 236.222 180.876 229.738 179.339 222.863C177.802 215.988 176.601 208.823 175.737 201.367C174.862 193.849 174.244 186.315 173.883 178.766C173.511 171.154 173.32 163.638 173.309 156.22C173.361 148.789 173.54 141.693 173.847 134.931C174.142 128.107 174.519 121.723 174.977 115.779C175.435 109.835 175.885 104.544 176.325 99.906C175.418 99.2283 174.416 99.9676 173.32 102.124C172.286 104.269 171.182 107.436 170.007 111.625C168.895 115.802 167.752 120.864 166.578 126.81C165.467 132.745 164.386 139.194 163.336 146.159C162.338 153.049 161.403 160.286 160.533 167.868C159.651 175.388 158.901 182.915 158.283 190.451C157.716 197.912 157.276 205.186 156.965 212.274C156.706 219.287 156.667 225.739 156.849 231.629C157.032 237.518 157.432 242.652 158.049 247.028C158.73 251.394 159.727 254.658 161.04 256.823L160.687 256.498C161.517 258.166 162.358 259.54 163.21 260.619C163.802 261.355 164.168 262.101 164.309 262.856C164.512 263.599 164.434 264.232 164.075 264.754C163.78 265.265 163.217 265.564 162.387 265.653C161.557 265.742 160.432 265.463 159.01 264.816C156.515 263.652 153.973 261.358 151.384 257.933C148.859 254.496 146.306 250.218 143.728 245.099C141.213 239.968 138.701 234.153 136.192 227.654C133.683 221.154 131.23 214.254 128.833 206.953C126.436 199.652 124.123 192.108 121.896 184.32C119.656 176.468 117.503 168.732 115.437 161.109C113.421 153.411 111.51 145.922 109.702 138.642C107.957 131.35 106.375 124.581 104.955 118.336C104.486 132.288 104.133 145.633 103.895 158.37C103.657 171.108 103.31 183.084 102.854 194.3C102.386 205.453 101.661 215.743 100.678 225.169C99.6824 234.532 98.1997 242.846 96.2293 250.112C94.3101 257.303 91.754 263.344 88.561 268.233C85.431 273.11 81.4601 276.614 76.6482 278.745C72.7217 280.385 68.7714 281.021 64.7973 280.653C60.8978 280.335 57.1925 279.136 53.6813 277.054C50.1702 274.972 46.9336 272.091 43.9717 268.41C41.0098 264.728 38.509 260.376 36.4694 255.352C34.3434 250.214 32.8562 245.185 32.0076 240.265C31.0844 235.294 30.6974 230.581 30.8466 226.127C30.9842 221.61 31.5694 217.401 32.6022 213.498C33.698 209.585 35.1331 206.096 36.9076 203.032C38.682 199.969 40.7761 197.399 43.1897 195.324C45.6032 193.248 48.1966 191.79 50.9698 190.95C54.4117 189.855 57.5813 189.396 60.4785 189.574C63.364 189.689 65.8176 190.633 67.8393 192.406C69.9238 194.167 71.488 196.806 72.5316 200.322C73.5752 203.839 74.0018 208.414 73.8112 214.047C73.6719 210.493 72.9163 207.476 71.5446 204.997C70.2241 202.443 68.5566 200.474 66.5421 199.091C64.5906 197.696 62.4296 196.926 60.0591 196.78C57.677 196.571 55.4176 197.024 53.2809 198.136C50.6129 199.543 48.4159 201.383 46.69 203.657C44.9524 205.867 43.5996 208.397 42.6314 211.245C41.7262 214.082 41.1941 217.175 41.0349 220.525C40.8758 223.874 41.0291 227.328 41.4947 230.887C41.9604 234.446 42.7267 238.046 43.7937 241.689C44.912 245.257 46.2761 248.746 47.886 252.158C49.3117 255.278 50.9994 258.056 52.9492 260.493C54.9502 262.856 57.0581 264.742 59.273 266.154C61.5626 267.616 63.9042 268.483 66.2981 268.755C68.7036 269.089 71.0749 268.714 73.4121 267.629C76.5322 266.203 79.1867 263.497 81.3756 259.51C83.639 255.575 85.5268 250.668 87.0387 244.789C88.6136 238.898 89.8793 232.219 90.8358 224.751C91.8434 217.208 92.6318 209.185 93.2008 200.682C93.8211 192.105 94.3141 183.193 94.68 173.947C95.0342 164.637 95.3825 155.297 95.725 145.925C96.0558 136.49 96.4041 127.149 96.77 117.903C97.1871 108.582 97.743 99.6584 98.4379 91.1322C94.1015 93.3696 89.7602 95.0546 85.414 96.1872C81.0677 97.3199 76.783 98.083 72.5599 98.4768C68.3368 98.8705 64.1928 98.9891 60.1279 98.8327C56.126 98.6646 52.2696 98.4044 48.5589 98.052C44.8482 97.6996 41.3321 97.3437 38.0106 96.9841C34.6774 96.5616 31.6426 96.3441 28.9063 96.3315C26.4217 96.2722 24.3605 96.9153 22.7227 98.261C21.0849 99.6067 19.8179 101.372 18.9216 103.556C18.0254 105.74 17.4393 108.193 17.1634 110.913C16.8874 113.633 16.806 116.349 16.9193 119.062C17.0838 121.701 17.4196 124.21 17.9265 126.589C18.4218 128.905 19.0043 130.815 19.674 132.318C21.319 135.918 22.9182 138.746 24.4715 140.801C26.0249 142.856 27.4789 144.376 28.8335 145.361C30.1882 146.346 31.4669 146.922 32.6697 147.09C33.9353 147.245 35.103 147.224 36.1727 147.025C32.871 148.875 29.8754 149.919 27.1858 150.159C24.4846 150.335 22.0499 149.843 19.8817 148.683C17.7647 147.449 15.8945 145.616 14.2711 143.183C12.636 140.688 11.2593 137.656 10.141 134.089C7.85329 127.028 6.91078 120.726 7.3135 115.183C7.70453 109.577 8.91177 104.862 10.9352 101.036C12.9587 97.2102 15.5152 94.3269 18.6048 92.3862C21.7456 90.3708 24.8904 89.4287 28.0393 89.56C33.8104 89.7901 39.1351 90.0705 44.0135 90.4014C48.9549 90.7205 53.5209 90.9465 57.7116 91.0796C61.9024 91.2126 65.8378 91.1978 69.518 91.0351C73.1982 90.8724 76.7057 90.4814 80.0407 89.862C83.364 89.1797 86.5659 88.1945 89.6465 86.9064C92.7783 85.5436 95.8971 83.7602 99.0029 81.556C100.007 80.6535 101.245 79.6099 102.718 78.4251C104.241 77.1657 105.739 75.9437 107.212 74.7589C108.861 73.4761 110.599 72.1444 112.426 70.7637C116.517 89.9879 120.693 108.968 124.954 127.705C126.764 135.701 128.702 144.032 130.766 152.696C132.831 161.361 134.922 169.988 137.038 178.578C139.217 187.157 141.392 195.54 143.564 203.729C145.787 211.844 147.93 219.355 149.994 226.262C149.954 220.086 150.102 212.995 150.438 204.992C150.762 196.925 151.263 188.402 151.939 179.424C152.678 170.434 153.602 161.214 154.711 151.764C155.871 142.24 157.242 132.97 158.822 123.954C160.454 114.864 162.304 106.253 164.375 98.1221C166.433 89.9285 168.761 82.6613 171.359 76.3203C173.945 69.9164 176.811 64.665 179.955 60.5659C183.1 56.4669 186.536 53.9409 190.265 52.9881ZM207.365 210.921C206.779 208.816 206.357 206.193 206.099 203.052C205.778 199.922 205.78 196.602 206.104 193.091C206.366 189.593 206.942 186.036 207.833 182.42C208.775 178.73 210.127 175.322 211.89 172.196C213.716 169.057 215.969 166.295 218.651 163.91C221.383 161.449 224.671 159.7 228.514 158.661C230.115 158.168 231.787 158.411 233.531 159.389C235.326 160.292 236.821 162.032 238.016 164.61C238.08 161.799 238.087 159.91 238.038 158.942C237.925 157.987 238.172 157.388 238.778 157.145C239.447 156.891 240.274 156.965 241.26 157.367C242.298 157.696 243.419 158.301 244.624 159.184C245.818 160.004 246.984 161.024 248.122 162.245C249.248 163.402 250.209 164.721 251.005 166.201C251.852 167.606 252.415 169.063 252.696 170.573C252.789 171.077 252.762 172.156 252.614 173.811C252.516 175.391 252.358 177.341 252.138 179.66C251.98 181.968 251.769 184.513 251.505 187.296C251.229 190.016 250.985 192.73 250.772 195.439C250.559 198.147 250.359 200.755 250.174 203.263C250.052 205.76 249.997 207.918 250.01 209.738C249.925 213.139 250.176 215.013 250.761 215.36C251.334 215.644 252.311 214.942 253.69 213.253C255.565 211.083 257.327 208.477 258.975 205.437C260.675 202.322 262.22 199.074 263.609 195.691C264.988 192.245 266.208 188.829 267.272 185.442C268.386 181.98 269.333 178.843 270.113 176.029C270.88 173.152 271.504 170.726 271.983 168.749C272.462 166.772 272.755 165.546 272.862 165.071C273.341 163.094 273.892 161.853 274.514 161.347C275.187 160.766 275.765 160.724 276.248 161.22C276.782 161.641 277.171 162.513 277.417 163.834C277.651 165.093 277.605 166.598 277.279 168.351C276.87 170.706 276.22 173.69 275.33 177.306C274.439 180.921 273.306 184.81 271.93 188.971C270.543 193.069 268.942 197.239 267.126 201.482C265.31 205.725 263.33 209.608 261.185 213.131C259.029 216.591 256.678 219.533 254.134 221.959C251.653 224.372 249.029 225.836 246.26 226.35C245.694 226.455 244.984 226.49 244.131 226.453C243.266 226.353 242.372 226.096 241.449 225.681C240.526 225.267 239.625 224.621 238.745 223.742C237.929 222.853 237.186 221.656 236.517 220.153C234.723 222.764 232.587 224.756 230.108 226.128C227.68 227.425 225.447 228.197 223.41 228.446C221.173 228.666 219.159 228.161 217.368 226.931C215.578 225.702 214.018 224.136 212.688 222.235C211.359 220.334 210.238 218.329 209.325 216.22C208.413 214.111 207.759 212.345 207.365 210.921ZM237.57 173.773C236.979 171.995 236.27 170.63 235.442 169.677C234.614 168.724 233.779 168.261 232.938 168.287C231.393 168.378 229.901 169.632 228.461 172.047C227.011 174.4 225.794 177.49 224.813 181.317C223.819 185.082 223.14 189.309 222.774 193.999C222.408 198.688 222.526 203.353 223.127 207.993C223.221 208.497 223.416 209.372 223.712 210.619C224.072 211.854 224.526 213.071 225.074 214.272C225.686 215.46 226.336 216.511 227.027 217.424C227.768 218.263 228.548 218.606 229.366 218.454C230.184 218.302 230.954 217.541 231.676 216.17C232.461 214.787 233.159 213.291 233.771 211.68C234.463 209.794 235.076 207.662 235.611 205.285L235.722 205.361L237.57 173.773ZM266.296 111.513C266.453 112.005 267.009 112.195 267.964 112.082C268.92 111.97 270.204 111.699 271.817 111.269L273.17 92.2705C275.865 91.7051 278.109 91.8741 279.904 92.7775C281.762 93.6692 283.258 94.8886 284.392 96.4357C285.588 97.971 286.456 99.665 286.995 101.518C287.586 103.296 287.972 104.851 288.155 106.184C290.499 105.489 292.855 104.856 295.223 104.286C297.654 103.704 300.013 103.266 302.302 102.971C304.579 102.613 306.734 102.474 308.766 102.552C310.85 102.555 312.691 102.832 314.29 103.381C314.915 103.591 315.372 104.124 315.662 104.982C315.94 105.776 316.097 106.626 316.135 107.53C316.224 108.36 316.17 109.118 315.972 109.806C315.762 110.431 315.471 110.615 315.098 110.359C313.527 109.609 311.725 109.195 309.693 109.117C307.66 109.039 305.474 109.185 303.134 109.554C300.782 109.861 298.34 110.379 295.807 111.11C293.262 111.778 290.76 112.503 288.302 113.285C288.351 118.809 288.244 123.841 287.981 128.381C287.706 132.859 287.364 137.153 286.956 141.265C286.611 145.365 286.26 149.433 285.903 153.47C285.598 157.433 285.407 161.667 285.333 166.172C285.258 170.678 285.328 175.612 285.543 180.975C285.809 186.263 286.373 192.277 287.234 199.017C287.354 200.362 287.599 201.683 287.97 202.981C288.341 204.279 288.784 205.434 289.297 206.445C289.81 207.457 290.351 208.267 290.92 208.878C291.541 209.414 292.165 209.623 292.795 209.506C293.927 209.296 295.095 208.396 296.296 206.805C297.498 205.215 298.719 203.199 299.957 200.755C301.196 198.312 302.408 195.548 303.592 192.464C304.84 189.368 306.013 186.221 307.112 183.023C308.273 179.813 309.32 176.689 310.253 173.652C311.249 170.602 312.109 167.872 312.833 165.459C313.545 162.983 314.112 160.958 314.536 159.382C314.959 157.806 315.222 156.943 315.325 156.794C315.574 156.032 315.932 155.51 316.401 155.227C316.869 154.945 317.321 154.926 317.757 155.171C318.181 155.352 318.558 155.803 318.887 156.523C319.216 157.243 319.397 158.219 319.43 159.449C319.414 159.713 319.218 160.758 318.841 162.586C318.453 164.35 317.895 166.602 317.167 169.341C316.49 172.005 315.625 175.062 314.574 178.512C313.585 181.951 312.445 185.45 311.153 189.01C309.861 192.569 308.432 196.089 306.865 199.57C305.349 202.976 303.712 206.079 301.954 208.879C300.184 211.616 298.332 213.913 296.399 215.769C294.528 217.614 292.555 218.729 290.478 219.115C289.346 219.325 287.777 219.291 285.772 219.012C283.831 218.722 281.841 217.822 279.803 216.313C277.828 214.792 275.99 212.432 274.29 209.232C272.589 206.033 271.413 201.63 270.762 196.022C270.006 189.849 269.506 183.823 269.26 177.945C269.003 172.004 268.917 165.934 269.003 159.734C269.151 153.522 269.41 147.03 269.779 140.256C270.2 133.409 270.704 125.959 271.292 117.908C269.947 118.028 268.774 118.018 267.772 117.879C266.758 117.677 265.998 117.264 265.491 116.642C265.06 116.072 264.843 115.428 264.84 114.713C264.838 113.997 264.915 113.364 265.073 112.814C265.283 112.19 265.527 111.754 265.807 111.506C266.087 111.259 266.25 111.261 266.296 111.513ZM340.346 168.356C339.948 169.016 339.397 169.378 338.693 169.444C338.052 169.498 337.433 169.32 336.836 168.91C336.239 168.5 335.776 167.935 335.447 167.215C335.169 166.421 335.2 165.536 335.54 164.562C336.637 162.405 337.45 160.301 337.981 158.25C338.574 156.187 338.831 154.414 338.751 152.932C338.757 151.564 338.458 150.48 337.854 149.681C337.301 148.807 336.49 148.47 335.42 148.668C334.665 148.809 333.838 149.613 332.939 151.082C332.092 152.476 331.231 154.328 330.358 156.639C329.549 158.937 328.777 161.619 328.045 164.684C327.363 167.675 326.811 170.837 326.389 174.17C326.029 177.492 325.85 180.91 325.852 184.424C325.905 187.865 326.224 191.158 326.808 194.304C327.1 195.877 327.518 197.427 328.062 198.953C328.594 200.417 329.223 201.699 329.949 202.801C330.662 203.841 331.461 204.636 332.345 205.188C333.228 205.74 334.162 205.86 335.145 205.547C336.609 205.015 338.085 204.024 339.573 202.576C341.125 201.116 342.592 199.379 343.976 197.365C345.422 195.339 346.79 193.067 348.08 190.549C349.433 188.019 350.7 185.376 351.88 182.618C353.088 179.659 354.196 176.687 355.204 173.701C356.274 170.703 357.205 167.829 357.996 165.078C358.787 162.327 359.487 159.789 360.097 157.462C360.695 155.073 361.205 153.091 361.629 151.515C362.108 149.538 362.658 148.297 363.28 147.791C363.954 147.21 364.532 147.168 365.014 147.664C365.548 148.085 365.938 148.957 366.183 150.278C366.417 151.537 366.371 153.042 366.046 154.795C365.588 157.94 364.849 161.495 363.828 165.46C362.87 169.413 361.665 173.445 360.215 177.555C358.766 181.664 357.072 185.689 355.135 189.629C353.261 193.557 351.222 197.126 349.019 200.334C346.804 203.479 344.426 206.101 341.887 208.2C339.399 210.225 336.816 211.388 334.138 211.69C330.127 212.174 326.648 211.844 323.702 210.699C320.755 209.554 318.273 207.932 316.256 205.833C314.176 203.745 312.533 201.382 311.326 198.742C310.057 196.113 309.088 193.526 308.42 190.982C306.944 185.137 306.502 179.426 307.094 173.848C307.685 168.27 308.997 163.242 311.03 158.764C313.113 154.211 315.726 150.405 318.869 147.348C322 144.228 325.41 142.26 329.099 141.445C332.159 140.747 334.595 140.717 336.406 141.357C338.28 141.986 339.729 142.953 340.753 144.261C341.765 145.505 342.455 146.939 342.821 148.563C343.239 150.113 343.522 151.46 343.67 152.604C344.042 155.66 343.884 158.488 343.195 161.09C342.569 163.679 341.62 166.101 340.346 168.356ZM402.627 184.617C402.69 186.363 403.011 187.215 403.589 187.173C404.219 187.056 405.152 186.297 406.389 184.895C408.515 182.677 410.509 180.094 412.37 177.145C414.219 174.132 415.887 171.023 417.375 167.818C418.926 164.601 420.288 161.419 421.461 158.271C422.685 155.05 423.736 152.121 424.613 149.484C425.491 146.848 426.18 144.604 426.683 142.753C427.185 140.902 427.49 139.739 427.597 139.263C428.139 137.275 428.721 136.028 429.343 135.522C430.017 134.941 430.595 134.899 431.077 135.395C431.611 135.817 431.969 136.694 432.152 138.027C432.386 139.285 432.371 140.785 432.109 142.527C431.779 144.606 431.185 147.19 430.326 150.278C429.468 153.367 428.367 156.728 427.024 160.363C425.732 163.923 424.232 167.586 422.523 171.353C420.877 175.109 419.065 178.668 417.085 182.03C415.106 185.392 412.968 188.425 410.671 191.13C408.437 193.823 406.087 195.887 403.619 197.322C402.214 198.168 400.552 198.51 398.634 198.345C396.727 198.244 394.902 197.704 393.158 196.726C391.466 195.673 390.004 194.285 388.772 192.561C387.529 190.774 386.848 188.687 386.731 186.3C386.536 183.147 386.47 180.165 386.534 177.354C386.649 174.468 386.807 171.64 387.008 168.868C387.273 166.085 387.531 163.271 387.784 160.425C388.025 157.516 388.236 154.45 388.419 151.226C388.527 147.951 388.412 145.759 388.076 144.65C387.728 143.478 387.194 143.056 386.474 143.385C385.806 143.64 385.016 144.47 384.105 145.876C383.195 147.282 382.294 148.914 381.402 150.772C380.498 152.567 379.638 154.419 378.821 156.328C378.004 158.238 377.323 159.829 376.778 161.102C376.695 166.26 376.819 171.835 377.15 177.827C377.47 183.756 378.166 189.778 379.236 195.894C379.423 196.901 379.575 197.719 379.692 198.348C379.872 198.965 379.971 199.5 379.99 199.952C379.997 200.342 379.898 200.685 379.693 200.984C379.489 201.282 379.126 201.61 378.607 201.967C378.036 202.398 377.023 202.554 375.569 202.433C374.114 202.313 372.59 201.815 370.995 200.939C369.389 200.001 367.864 198.624 366.42 196.809C364.965 194.931 363.982 192.445 363.473 189.35C362.049 180.632 361.282 171.596 361.172 162.242C360.988 152.838 361.328 143.629 362.193 134.616C363.121 125.591 364.451 116.979 366.183 108.781C367.915 100.583 369.911 93.2794 372.171 86.8711C374.494 80.451 376.995 75.1694 379.676 71.0263C382.419 66.8716 385.203 64.3366 388.028 63.4215C390.726 62.5298 393.054 62.6183 395.01 63.6872C396.954 64.693 398.546 66.2526 399.784 68.366C401.074 70.4047 402.033 72.7653 402.662 75.4477C403.278 78.0671 403.602 80.513 403.634 82.7855C403.662 87.1416 403.24 91.3535 402.368 95.4211C401.496 99.4887 400.325 103.351 398.857 107.009C397.376 110.604 395.697 114.008 393.82 117.22C391.932 120.37 390.059 123.256 388.203 125.88C386.347 128.503 384.564 130.819 382.854 132.829C381.133 134.776 379.667 136.35 378.458 137.551C378.307 138.49 378.126 139.793 377.915 141.46C377.767 143.115 377.602 145.033 377.421 147.215C378.306 144.968 379.385 142.717 380.659 140.462C381.984 138.133 383.499 136.127 385.204 134.443C386.898 132.696 388.817 131.461 390.96 130.738C393.093 129.951 395.446 130.002 398.019 130.891C399.968 131.571 401.513 132.879 402.654 134.815C403.783 136.689 404.601 138.815 405.108 141.194C405.666 143.499 405.941 145.857 405.933 148.267C405.976 150.602 405.811 152.52 405.439 154.021C404.932 156.199 404.466 158.596 404.041 161.214C403.604 163.768 403.248 166.406 402.972 169.126C402.684 171.783 402.497 174.454 402.41 177.139C402.374 179.75 402.446 182.242 402.627 184.617ZM394.442 74.8261C393.463 74.8126 392.465 75.7465 391.447 77.628C390.481 79.4348 389.531 81.8569 388.598 84.8944C387.716 87.8572 386.847 91.2407 385.992 95.0449C385.136 98.8491 384.323 102.71 383.554 106.629C382.847 110.535 382.186 114.336 381.57 118.031C380.943 121.662 380.428 124.85 380.027 127.593C382.044 125.136 384.087 122.12 386.158 118.546C388.228 114.972 390.106 111.238 391.791 107.345C393.539 103.44 395.03 99.5503 396.264 95.6759C397.497 91.8016 398.317 88.3296 398.723 85.2598C399.118 82.127 398.977 79.6146 398.3 77.7224C397.686 75.8185 396.4 74.853 394.442 74.8261ZM423.881 170.711C423.295 168.606 422.873 165.983 422.615 162.841C422.294 159.711 422.296 156.391 422.621 152.881C422.882 149.382 423.458 145.825 424.349 142.21C425.291 138.52 426.644 135.112 428.407 131.985C430.232 128.847 432.486 126.085 435.167 123.7C437.9 121.239 441.188 119.489 445.031 118.45C446.632 117.958 448.304 118.2 450.048 119.178C451.843 120.082 453.338 121.822 454.533 124.399C454.596 121.588 454.604 119.699 454.554 118.732C454.442 117.777 454.689 117.177 455.294 116.935C455.963 116.68 456.791 116.755 457.777 117.157C458.814 117.485 459.936 118.091 461.141 118.974C462.335 119.793 463.501 120.814 464.639 122.034C465.765 123.192 466.726 124.511 467.522 125.99C468.368 127.395 468.932 128.853 469.212 130.363C469.306 130.867 469.278 131.946 469.13 133.601C469.033 135.181 468.874 137.131 468.654 139.45C468.497 141.757 468.286 144.303 468.022 147.086C467.746 149.806 467.501 152.52 467.288 155.229C467.075 157.937 466.876 160.545 466.691 163.053C466.569 165.549 466.514 167.708 466.526 169.528C466.442 172.929 466.692 174.802 467.277 175.149C467.851 175.434 468.827 174.731 470.206 173.043C472.081 170.872 473.843 168.267 475.492 165.227C477.192 162.112 478.736 158.863 480.126 155.481C481.504 152.035 482.725 148.619 483.788 145.232C484.903 141.77 485.85 138.632 486.629 135.819C487.397 132.942 488.02 130.516 488.499 128.539C488.979 126.562 489.272 125.336 489.379 124.861C489.858 122.884 490.408 121.642 491.03 121.136C491.704 120.556 492.282 120.513 492.764 121.01C493.298 121.431 493.688 122.303 493.933 123.624C494.167 124.883 494.121 126.388 493.796 128.141C493.387 130.495 492.737 133.48 491.846 137.096C490.955 140.711 489.822 144.599 488.447 148.76C487.06 152.859 485.458 157.029 483.643 161.272C481.827 165.515 479.847 169.398 477.702 172.921C475.545 176.381 473.195 179.323 470.651 181.748C468.17 184.162 465.545 185.626 462.777 186.14C462.21 186.245 461.501 186.279 460.647 186.243C459.783 186.143 458.889 185.886 457.966 185.471C457.042 185.057 456.141 184.411 455.262 183.532C454.446 182.642 453.703 181.446 453.033 179.943C451.24 182.554 449.104 184.546 446.624 185.918C444.196 187.215 441.964 187.987 439.927 188.235C437.69 188.456 435.676 187.951 433.885 186.721C432.094 185.491 430.534 183.926 429.205 182.025C427.875 180.124 426.754 178.119 425.842 176.01C424.93 173.901 424.276 172.134 423.881 170.711ZM454.086 133.563C453.496 131.785 452.786 130.419 451.959 129.467C451.131 128.514 450.296 128.05 449.455 128.076C447.909 128.168 446.417 129.422 444.978 131.837C443.527 134.189 442.311 137.279 441.329 141.107C440.336 144.872 439.656 149.099 439.291 153.789C438.925 158.478 439.043 163.143 439.644 167.783C439.737 168.287 439.932 169.162 440.229 170.409C440.589 171.644 441.043 172.861 441.591 174.061C442.202 175.25 442.853 176.301 443.543 177.214C444.285 178.052 445.065 178.396 445.883 178.244C446.701 178.092 447.471 177.331 448.193 175.96C448.977 174.577 449.676 173.081 450.288 171.47C450.979 169.584 451.592 167.452 452.127 165.074L452.239 165.151L454.086 133.563Z" fill="#403539"/>
</svg>
