<svg width="352" height="268" viewBox="0 0 352 268" fill="none" xmlns="http://www.w3.org/2000/svg">
<g id="sad_cup">
<g id="&#209;&#135;&#208;&#176;&#209;&#136;&#208;&#186;&#208;&#176;">
<g id="&#209;&#130;&#208;&#176;&#209;&#128;&#208;&#181;&#208;&#187;&#208;&#186;&#208;&#176;" filter="url(#filter0_d_412_38)">
<ellipse cx="174" cy="180.5" rx="170" ry="79.5" fill="#EDEDED"/>
</g>
<ellipse id="&#209;&#130;&#208;&#176;&#209;&#128;&#208;&#181;&#208;&#187;&#208;&#186;&#208;&#176;_2" cx="173.5" cy="181" rx="116.5" ry="46" fill="#707420" fill-opacity="0.61"/>
<ellipse id="&#209;&#130;&#208;&#176;&#209;&#128;&#208;&#181;&#208;&#187;&#208;&#186;&#208;&#176;_3" cx="187" cy="186" rx="83" ry="31" fill="#707420" fill-opacity="0.61"/>
<path id="&#208;&#186;&#209;&#128;&#209;&#131;&#208;&#182;&#208;&#186;&#208;&#176;" d="M146.5 205.5C124 204.5 59 177 49 64.5L298.5 64C298.5 75.5 297.7 111.1 270.5 155.5L270.408 155.651C264.841 164.761 250.538 188.169 221.5 200.5C212.5 205.5 184.5 209.5 146.5 205.5Z" fill="#E2E2E2"/>
<path id="&#208;&#191;&#209;&#143;&#209;&#130;&#208;&#189;&#208;&#190; &#208;&#186;&#209;&#128;&#209;&#131;&#208;&#182;&#208;&#186;&#208;&#176;" d="M175 184.5C142 188 93.4 179.4 65 85L276 90.5C267.5 142 239.5 184.5 175 184.5Z" fill="#EDEDED"/>
<path id="&#208;&#191;&#209;&#143;&#209;&#130;&#208;&#189;&#208;&#190; &#208;&#186;&#209;&#128;&#209;&#131;&#208;&#182;&#208;&#186;&#208;&#176; &#208;&#177;&#208;&#181;&#208;&#187;&#208;&#190;&#208;&#181;" d="M152.5 167.5C140.167 173 114.4 169.4 104 111L161 121C164.333 127.5 166.5 157 152.5 167.5Z" fill="#F5F5F5"/>
<path id="&#208;&#191;&#209;&#143;&#209;&#130;&#208;&#189;&#208;&#190; &#208;&#177;&#208;&#181;&#208;&#187;&#208;&#190;&#208;&#181; &#208;&#186;&#209;&#128;&#209;&#131;&#208;&#182;&#208;&#186;&#208;&#176; 2 " d="M245.157 151.715C252.152 144.828 264.064 127.448 255.752 113.024C254.034 111.694 250.151 110.6 248.369 116.863C246.272 128.721 235.983 146.652 206.124 161.173C204.87 162.062 199.192 165.555 200.633 171.714C205.927 174.21 222.242 173.705 245.157 151.715Z" fill="#F5F5F5"/>
<path id="&#209;&#131;&#209;&#136;&#208;&#186;&#208;&#190;" d="M322 154.594C368.5 118.094 359.5 54.0939 297 66.5939L295 87.5939C308.5 83.4272 339 84.0939 331 116.094C326.5 128.594 308 163.112 260 164.594L251 176.094C259.5 179.094 285 182.094 322 154.594Z" fill="#E2E2E2"/>
<ellipse id="&#208;&#178;&#208;&#189;&#208;&#181;&#209;&#136;&#208;&#189;&#209;&#143;&#209;&#143; &#208;&#186;&#208;&#176;&#208;&#185;&#208;&#188;&#208;&#176;" cx="173.5" cy="61" rx="125.5" ry="61" fill="#F4F5E8"/>
<ellipse id="&#208;&#178;&#208;&#189;&#209;&#131;&#209;&#130;&#209;&#128;&#208;&#181;&#208;&#189;&#208;&#189;&#209;&#143;&#209;&#143; &#208;&#186;&#208;&#176;&#208;&#185;&#208;&#188;&#208;&#176;" cx="173.5" cy="61" rx="114.5" ry="54" fill="#E2E2E2"/>
<path id="&#209;&#130;&#208;&#181;&#208;&#189;&#209;&#140; &#209;&#130;&#208;&#176;&#209;&#128;&#208;&#181;&#208;&#187;&#208;&#186;&#208;&#176; 2 " d="M40.4515 217.5C10.4515 198.5 0.951477 157.5 53.4514 133C55.7848 133 60.1515 134.7 58.9515 141.5C54.9515 148 37.9515 151 35.4515 178.5C37.9515 217.5 102.451 235 103.951 241.5C100.618 244.333 83.2515 243.5 40.4515 217.5Z" fill="#F5F5F5"/>
<path id="&#209;&#130;&#208;&#181;&#208;&#189;&#209;&#140; &#209;&#130;&#208;&#176;&#209;&#128;&#208;&#181;&#208;&#187;&#208;&#186;&#208;&#176; 1" d="M239.232 246.43C261.732 242.43 310.732 226.43 329.232 183.93C331.844 177.93 324.232 172.43 319.232 178.93C315.565 188.93 301.732 217.43 251.732 237.93C248.732 240.43 237.232 242.83 239.232 246.43Z" fill="#F5F5F5"/>
<path id="Vector 9" d="M312.5 68C362.1 72.8 342.5 116 340.5 118.5C342.9 80.5 335 78 312.5 68Z" fill="#F4F4F4"/>
</g>
<g id="sad">
<g id="redness">
<ellipse id="Ellipse 1" cx="1.61266" cy="8.47178" rx="1.61266" ry="8.47178" transform="matrix(0.947637 0.319349 -0.31924 0.947674 114.409 148.469)" fill="#F39BB3"/>
<ellipse id="Ellipse 4" cx="1.61266" cy="8.47178" rx="1.61266" ry="8.47178" transform="matrix(0.947637 0.319349 -0.31924 0.947674 126.865 156.135)" fill="#F39BB3"/>
<ellipse id="Ellipse 2" cx="1.61266" cy="12.5711" rx="1.61266" ry="12.5711" transform="matrix(0.947637 0.319349 -0.31924 0.947674 119.807 147.379)" fill="#F39BB3"/>
<ellipse id="Ellipse 3" cx="1.61266" cy="12.5711" rx="1.61266" ry="12.5711" transform="matrix(0.947637 0.319349 -0.31924 0.947674 123.953 149.683)" fill="#F39BB3"/>
</g>
<g id="redness_2">
<ellipse id="Ellipse 1_2" cx="1.61266" cy="8.47178" rx="1.61266" ry="8.47178" transform="matrix(0.947637 0.319349 -0.31924 0.947674 223.487 149.514)" fill="#F39BB3"/>
<ellipse id="Ellipse 4_2" cx="1.61266" cy="8.47178" rx="1.61266" ry="8.47178" transform="matrix(0.947637 0.319349 -0.31924 0.947674 235.943 157.181)" fill="#F39BB3"/>
<ellipse id="Ellipse 2_2" cx="1.61266" cy="12.5711" rx="1.61266" ry="12.5711" transform="matrix(0.947637 0.319349 -0.31924 0.947674 228.885 148.425)" fill="#F39BB3"/>
<ellipse id="Ellipse 3_2" cx="1.61266" cy="12.5711" rx="1.61266" ry="12.5711" transform="matrix(0.947637 0.319349 -0.31924 0.947674 233.032 150.729)" fill="#F39BB3"/>
</g>
<path id="Vector 12" d="M120.824 151.652C115.248 146.076 110.892 135.621 116.467 131.265C119.43 130.046 123.089 133.008 124.657 140.675C124.599 141.778 125.284 144.578 128.49 146.947C132.847 149.619 143.023 152.314 148.877 141.72C150.446 137.887 149.191 131.265 156.718 131.265C159.158 131.73 162.573 135.517 156.718 146.947C152.42 154.498 135.112 165.94 120.824 151.652Z" fill="#403539" stroke="#403539"/>
<path id="Vector 14" d="M185.681 163.124C189.335 166.808 192.172 173.699 188.491 176.55C186.539 177.344 184.14 175.385 183.129 170.336C183.17 169.61 182.727 167.766 180.624 166.198C177.765 164.428 171.077 162.627 167.196 169.582C166.153 172.1 166.961 176.46 162.008 176.439C160.404 176.127 158.167 173.626 162.051 166.121C164.9 161.165 176.319 153.684 185.681 163.124Z" fill="#403539" stroke="#403539"/>
<path id="Vector 13" d="M195.053 151.652C189.477 146.076 185.121 135.621 190.697 131.265C193.659 130.046 197.318 133.008 198.886 140.675C198.828 141.778 199.513 144.578 202.72 146.947C207.076 149.619 217.252 152.314 223.106 141.72C224.675 137.887 223.42 131.265 230.948 131.265C233.387 131.73 236.802 135.517 230.948 146.947C226.649 154.498 209.341 165.94 195.053 151.652Z" fill="#403539" stroke="#403539"/>
<path id="Vector 15" d="M226.276 166.164C224.749 164.274 223.416 158.915 230.303 152.607C233.08 153.022 237.384 161.184 235.301 165.196C233.913 166.764 230.164 169.153 226.276 166.164Z" fill="#97E2FF"/>
</g>
</g>
<defs>
<filter id="filter0_d_412_38" x="0" y="101" width="348" height="167" filterUnits="userSpaceOnUse" color-interpolation-filters="sRGB">
<feFlood flood-opacity="0" result="BackgroundImageFix"/>
<feColorMatrix in="SourceAlpha" type="matrix" values="0 0 0 0 0 0 0 0 0 0 0 0 0 0 0 0 0 0 127 0" result="hardAlpha"/>
<feOffset dy="4"/>
<feGaussianBlur stdDeviation="2"/>
<feComposite in2="hardAlpha" operator="out"/>
<feColorMatrix type="matrix" values="0 0 0 0 0 0 0 0 0 0 0 0 0 0 0 0 0 0 0.25 0"/>
<feBlend mode="normal" in2="BackgroundImageFix" result="effect1_dropShadow_412_38"/>
<feBlend mode="normal" in="SourceGraphic" in2="effect1_dropShadow_412_38" result="shape"/>
</filter>
</defs>
</svg>
